<?xml version="1.0" encoding="UTF-8" standalone="no"?>
<svg width="465" height="105" viewBox="0 0 465 105" xmlns="http://www.w3.org/2000/svg">
    <defs>
        <filter id="shadow">
            <feOffset dx="0" dy="4" in="SourceAlpha" result="shadowOffset"></feOffset>
            <feGaussianBlur stdDeviation="4" in="shadowOffset" result="shadowBlur"></feGaussianBlur>
            <feColorMatrix type="matrix" values="0 0 0 0 0.322, 0 0 0 0 0.561, 0 0 0 0 0.8, 0 0 0 0.25 0" in="shadowBlur" result="shadowBlue"></feColorMatrix>
            <feMerge>
                <feMergeNode in="shadowBlue"></feMergeNode>
                <feMergeNode in="SourceGraphic"></feMergeNode>
            </feMerge>
        </filter>
    </defs>
    <path d="M99.09 57.823l2.2 6.007 15.133-38.012h9.49l-25.172 57.27c-.58 1.285-1.32 2.645-2.22 4.082-.9 1.436-1.99 2.766-3.28 3.99-1.28 1.222-2.78 2.246-4.49 3.07-1.71.826-3.68 1.24-5.91 1.24-.39 0-.84-.024-1.33-.07-.49-.046-.97-.107-1.46-.183s-.94-.16-1.37-.252c-.42-.092-.78-.168-1.05-.23L81 87.812c.214 0 .504.015.87.045s.75.062 1.147.092.78.05 1.147.06c.364.01.654.02.87.02 1.16 0 2.22-.32 3.185-.97.96-.64 1.82-1.41 2.57-2.3.74-.89 1.39-1.81 1.92-2.75.53-.95.95-1.73 1.26-2.34l3.39-6.6L75.99 25.8h9.49L99.1 57.81zm79.97-6.648c0 3.546-.43 6.855-1.285 9.927-.856 3.072-2.11 5.74-3.76 8-1.65 2.263-3.69 4.036-6.122 5.32-2.43 1.284-5.204 1.926-8.322 1.926-3.02 0-5.69-.49-8-1.467-2.31-.97-4.28-2.38-5.94-4.21v23.84h-8.48V25.82h7.75l.41 5.41c1.65-2.048 3.65-3.615 5.99-4.7 2.34-1.085 5.05-1.628 8.14-1.628 3.18 0 5.99.628 8.44 1.88 2.45 1.255 4.5 2.997 6.15 5.23 1.65 2.23 2.91 4.897 3.76 8 .86 3.103 1.29 6.504 1.29 10.203v.963zm-8.484-.963c0-2.415-.268-4.716-.803-6.9-.535-2.187-1.36-4.113-2.476-5.78-1.116-1.665-2.53-2.987-4.24-3.965-1.713-.978-3.76-1.468-6.146-1.468-2.72 0-5 .63-6.85 1.9-1.85 1.27-3.32 2.89-4.42 4.88v23.89c1.1 1.95 2.57 3.55 4.41 4.79 1.84 1.24 4.16 1.86 6.97 1.86 2.36 0 4.39-.5 6.1-1.49 1.71-1 3.12-2.33 4.22-4.01 1.1-1.68 1.92-3.63 2.46-5.83s.8-4.51.8-6.93v-.96zm44.89 26.136c-3.485 0-6.687-.596-9.606-1.788-2.92-1.192-5.418-2.858-7.497-4.998-2.08-2.14-3.7-4.677-4.86-7.612-1.162-2.934-1.743-6.13-1.743-9.583V50.44c0-4.004.642-7.588 1.926-10.752 1.284-3.164 2.988-5.838 5.113-8.024 2.12-2.186 4.53-3.86 7.24-5.02 2.7-1.163 5.48-1.744 8.32-1.744 3.57 0 6.7.62 9.37 1.858s4.9 2.95 6.67 5.135c1.77 2.186 3.09 4.76 3.96 7.726.87 2.96 1.3 6.17 1.3 9.63v3.8h-35.44c.09 2.26.52 4.38 1.3 6.37s1.85 3.72 3.21 5.2c1.36 1.48 2.985 2.65 4.88 3.5 1.892.85 3.99 1.28 6.28 1.28 3.025 0 5.715-.61 8.07-1.83 2.353-1.23 4.31-2.85 5.87-4.86l5.18 4.03c-.826 1.25-1.857 2.45-3.095 3.6-1.238 1.14-2.667 2.16-4.288 3.05-1.62.88-3.455 1.59-5.5 2.13-2.05.53-4.28.8-6.697.8zm-1.1-44.478c-1.712 0-3.332.314-4.86.94-1.53.627-2.905 1.544-4.127 2.75-1.23 1.21-2.26 2.69-3.1 4.45-.84 1.757-1.43 3.782-1.77 6.075h26.69v-.642c-.09-1.65-.41-3.286-.94-4.906-.54-1.62-1.32-3.073-2.36-4.357-1.04-1.283-2.35-2.323-3.92-3.118-1.58-.794-3.45-1.192-5.62-1.192zm68.138 43.56c-.336-.64-.603-1.443-.802-2.406-.2-.963-.344-1.964-.436-3.004-.856.856-1.81 1.666-2.866 2.43-1.054.765-2.216 1.437-3.484 2.018-1.27.58-2.622 1.04-4.058 1.376-1.437.336-2.966.504-4.586.504-2.63 0-5.006-.382-7.13-1.146-2.125-.764-3.928-1.796-5.41-3.095-1.483-1.3-2.63-2.843-3.44-4.63-.81-1.79-1.215-3.723-1.215-5.802 0-2.72.543-5.105 1.628-7.153 1.085-2.048 2.62-3.752 4.608-5.113 1.987-1.36 4.38-2.38 7.176-3.05 2.79-.68 5.92-1.01 9.37-1.01h9.26v-3.9c0-1.5-.28-2.85-.83-4.04-.55-1.19-1.33-2.21-2.34-3.05-1.01-.84-2.24-1.49-3.69-1.95-1.46-.46-3.08-.69-4.89-.69-1.68 0-3.19.21-4.52.64-1.33.42-2.46.99-3.37 1.69-.92.7-1.63 1.53-2.14 2.5-.51.96-.76 1.96-.76 3h-8.53c.03-1.81.5-3.58 1.4-5.32.9-1.75 2.2-3.31 3.9-4.7 1.7-1.39 3.76-2.52 6.19-3.37 2.43-.86 5.19-1.29 8.28-1.29 2.81 0 5.423.34 7.84 1.03s4.5 1.72 6.26 3.11c1.754 1.39 3.14 3.13 4.15 5.21 1.01 2.08 1.51 4.51 1.51 7.29V64.6c0 1.65.152 3.4.46 5.25.31 1.85.736 3.462 1.286 4.837v.733h-8.85zm-14.994-6.464c1.65 0 3.195-.214 4.63-.642 1.438-.428 2.745-.994 3.922-1.697 1.177-.703 2.193-1.505 3.05-2.407.855-.902 1.528-1.842 2.017-2.82V51.358h-7.89c-4.95 0-8.81.734-11.56 2.2-2.75 1.468-4.13 3.776-4.13 6.925 0 1.223.2 2.354.62 3.393.41 1.04 1.03 1.933 1.85 2.682.82.75 1.86 1.338 3.12 1.766 1.25.428 2.7.642 4.35.642zm80.794-17.79c0 3.545-.428 6.854-1.284 9.926-.856 3.072-2.11 5.74-3.76 8-1.65 2.263-3.69 4.036-6.12 5.32-2.43 1.284-5.22 1.926-8.37 1.926-3.18 0-5.937-.565-8.276-1.696-2.34-1.13-4.333-2.752-5.984-4.86l-.413 5.64h-7.795V5h8.483v26.137c1.62-2.018 3.577-3.562 5.87-4.632 2.292-1.07 4.967-1.605 8.024-1.605 3.17 0 5.99.627 8.43 1.88 2.44 1.254 4.49 2.996 6.14 5.228 1.65 2.23 2.9 4.898 3.76 8 .85 3.104 1.28 6.505 1.28 10.204v.963zm-8.483-.964c0-2.415-.23-4.716-.71-6.9-.47-2.187-1.23-4.113-2.27-5.78-1.04-1.665-2.4-2.987-4.08-3.965-1.68-.978-3.74-1.468-6.19-1.468-1.46 0-2.81.19-4.03.57-1.22.38-2.31.91-3.28 1.6-.96.68-1.82 1.49-2.57 2.43-.75.93-1.38 1.95-1.9 3.05v21.69c.55 1.1 1.2 2.11 1.95 3.05.75.93 1.61 1.75 2.59 2.45.98.7 2.08 1.24 3.3 1.63 1.23.38 2.57.57 4.04.57 2.33 0 4.32-.48 5.99-1.45 1.67-.96 3.03-2.27 4.08-3.92 1.06-1.65 1.84-3.56 2.34-5.73.51-2.17.76-4.47.76-6.88v-.96zM359.72 5h25.357v63.095h16.188v7.336H359.72V68.1h16.874V12.382H359.72V5zm75.065 71.348c-3.485 0-6.687-.596-9.607-1.788-2.92-1.192-5.418-2.858-7.497-4.998-2.08-2.14-3.7-4.677-4.86-7.612-1.16-2.934-1.74-6.13-1.74-9.583V50.44c0-4.004.64-7.588 1.93-10.752 1.29-3.164 2.99-5.838 5.12-8.024 2.13-2.186 4.54-3.86 7.25-5.02 2.71-1.163 5.48-1.744 8.32-1.744 3.58 0 6.7.62 9.38 1.858 2.68 1.238 4.9 2.95 6.67 5.135 1.77 2.186 3.1 4.76 3.97 7.726.87 2.96 1.31 6.17 1.31 9.63v3.8h-35.45c.09 2.26.528 4.38 1.308 6.37s1.85 3.72 3.21 5.2c1.36 1.48 2.99 2.65 4.885 3.5 1.89.85 3.99 1.28 6.28 1.28 3.02 0 5.71-.61 8.07-1.83 2.35-1.23 4.31-2.85 5.87-4.86l5.18 4.03c-.83 1.25-1.86 2.45-3.1 3.6-1.24 1.14-2.67 2.16-4.29 3.05-1.62.88-3.46 1.59-5.506 2.13-2.05.53-4.28.8-6.694.8zm-1.1-44.478c-1.713 0-3.333.314-4.86.94-1.53.627-2.905 1.544-4.128 2.75-1.22 1.21-2.253 2.69-3.093 4.45-.84 1.757-1.43 3.782-1.766 6.075h26.688v-.642c-.09-1.65-.404-3.286-.94-4.906-.534-1.62-1.32-3.073-2.36-4.357-1.04-1.283-2.347-2.323-3.92-3.118-1.575-.794-3.448-1.192-5.618-1.192zM67.133 53.023H17.98v30.86H10v-69.11h7.98v31.05h49.155v7.2z" filter="url(#shadow)" fill="#106ECC" fill-rule="evenodd"/>
</svg>
