<?xml version="1.0" encoding="utf-8"?>
<svg width="151" height="20" viewBox="0 0 151 20" xmlns="http://www.w3.org/2000/svg">
  <path d="M94.555 19.083s3.306.917 7.528.917c4.5 0 6.582-.5 6.582-.5v-3.333s-2.25.444-5.388.444c-2.75 0-4.445-.36-4.445-.36v-4.722h8.53V8.195h-8.53v-4.5S100.5 3.39 103 3.39c2.805 0 5.332.444 5.332.444V.472S106.11 0 102.5 0c-4.806 0-7.945.862-7.945.862v18.22zM33.61 11.5c-.11.278-.25.806-.332 1.11-.083-.304-.222-.832-.333-1.11l-3.778-9.694C28.527.196 27.527 0 25.695 0c-.64 0-1.945.083-1.945.083l-1.944 19.64h4.306l.944-13.167 4.083 9.972c.305.777.916 1.083 2.138 1.083s1.833-.305 2.14-1.082L39.5 6.556l.944 13.166h4.305L42.804.082S41.5 0 40.86 0c-1.832 0-2.832.195-3.47 1.806L33.61 11.5zm-21.554 4.028c-.917.36-3.14 1.083-4.778 1.083-1.778 0-3.11-.61-3.11-2.554 0-1.695.915-2.667 3.36-2.75l4.528-.167v4.388zM9.5 0c-3.833 0-6.833.945-8 1.528l.917 3.222S5.362 3.695 8.25 3.695c2.472 0 3.75.694 3.75 3.138v1.39H8.25C1.89 8.223 0 11.14 0 14.36 0 18.64 3.334 20 6.36 20c3.53 0 5.585-1.472 5.835-1.472.194 0 .916.777 4.138.777V5.695C16.333 1.612 13.806 0 9.5 0zm51.555 15.528c-.916.36-3.14 1.083-4.777 1.083-1.778 0-3.112-.61-3.112-2.554 0-1.695.917-2.667 3.362-2.75l4.527-.167v4.388zM58.5 0c-3.834 0-6.834.945-8 1.528l.916 3.222s2.945-1.055 5.833-1.055c2.472 0 3.75.694 3.75 3.138v1.39h-3.75c-6.36 0-8.25 2.916-8.25 6.138 0 4.28 3.333 5.64 6.36 5.64 3.528 0 5.584-1.472 5.834-1.472.195 0 .917.777 4.14.777V5.695c0-4.083-2.53-5.695-6.835-5.695zm68.138 14.833c-1.028.5-3.25 1.334-5.278 1.334-2.945 0-3.445-1.334-3.445-4.39V.168h-.64c-.97 0-3.137.166-3.665.278v11.888c0 5.195 1.278 7.667 6.555 7.667 4.028 0 6.39-1.555 6.555-1.555.056 0 1.446.86 4.224.86V.445c-.305-.056-2.39-.278-3.446-.278h-.86v14.666zm9.392 4.472s2.666.695 6.39.695c3.527 0 7.97-1.194 7.97-5.972 0-3.11-2.305-4.445-6.055-5.805-2.027-.75-3.75-1.417-3.75-2.806 0-.667.5-1.972 3.083-1.972 2.417 0 4.89 1.11 4.89 1.11l1.083-3.194C148.92 1 146.558 0 143.28 0c-3.556 0-7.028 1.89-7.028 5.695 0 3.917 3.556 5.11 6.333 6.028 1.89.638 3.473 1.305 3.473 2.555 0 1.222-.667 2.278-3.862 2.278-2.61 0-5.388-.583-5.388-.583l-.778 3.332zM75.888 3.722c.694-.138 2.056-.333 3.417-.333 3.11 0 5.556 1.75 5.556 6.472 0 4.583-1.194 6.75-5.944 6.75-1.528 0-3.028-.223-3.028-.223V3.72zM79.498 0c-2.443 0-5.832.417-7.915 1.167v18.25c1.722.36 4.945.583 7.194.583 7.667 0 10.64-3 10.64-10.138 0-6.167-3.78-9.862-9.918-9.862z" fill="#1B69BC" fill-rule="evenodd"/>
</svg>
