<?xml version="1.0" encoding="utf-8"?>
<svg width="215" height="74" viewBox="0 0 215 74" xmlns="http://www.w3.org/2000/svg">
    <g fill="none" fill-rule="evenodd"><path d="M89.978 28.637h7.77v23.8h5.544v-23.8h7.508v-4.643H89.978v4.643M165.68 32.577h-6.085l-7.15 8.473V24.604l-5.29 1.918v25.915h5.29v-9.71l6.983 9.71h6.292l-7.853-10.685 7.812-9.175M180.173 44.89c-.197.738-.48 1.382-.843 1.938-.37.56-.826.996-1.372 1.305-.55.314-1.175.47-1.88.47-1.435 0-2.532-.54-3.292-1.61-.762-1.073-1.143-2.59-1.143-4.55 0-1.738.37-3.18 1.098-4.32.738-1.143 1.802-1.714 3.212-1.714 1.492 0 2.616.564 3.375 1.692.762 1.13 1.138 2.603 1.138 4.426 0 .842-.097 1.627-.292 2.363m2.925-9.99c-.85-.897-1.88-1.585-3.08-2.06-1.2-.476-2.514-.716-3.94-.716-1.426 0-2.74.24-3.94.716-1.205.475-2.233 1.154-3.103 2.038-.862.885-1.536 1.974-2.012 3.262-.472 1.29-.712 2.755-.712 4.388 0 1.576.232 3.002.695 4.28.46 1.28 1.108 2.367 1.95 3.264.836.897 1.848 1.588 3.037 2.08 1.187.49 2.522.733 4.003.733 1.423 0 2.736-.24 3.94-.713 1.202-.473 2.234-1.165 3.102-2.06.866-.9 1.544-1.992 2.032-3.284.488-1.29.736-2.754.736-4.386 0-1.573-.24-3.004-.717-4.28-.475-1.277-1.14-2.364-1.992-3.263M116.137 23.993c-.904 0-1.662.305-2.274.9-.6.603-.91 1.325-.91 2.175 0 .822.31 1.528.91 2.135.612.597 1.37.896 2.274.896.85 0 1.585-.3 2.208-.897.624-.607.935-1.313.935-2.135 0-.85-.31-1.572-.935-2.176-.623-.594-1.358-.9-2.208-.9M113.448 32.527h5.334v19.91h-5.334v-19.91zM135.28 32.342c-3.876-.286-6.07 1.833-6.07 1.833v-1.64h-5.334v19.9h5.334v-11.86c0-2.013 1.684-3.648 3.76-3.648 2.077 0 3.76 1.635 3.76 3.65v11.86h5.333V40.66c0-6.242-3.624-8.084-6.782-8.318M190.878 32.125v.367h-3.198v4.08h3.198v15.864h5.334s0-9.548.002-15.863h3.186v-4.08h-3.184v-.417c0-2.746 1.287-4.097 3.805-3.7l.83-4.12c-8.11-.967-9.972 3.35-9.972 7.87M204.64 32.125v.367h-3.196v4.08h3.197v15.864h5.336s0-9.548.003-15.863h3.184v-4.08h-3.183v-.417c0-2.746 1.287-4.097 3.803-3.7l.833-4.12c-8.115-.967-9.975 3.35-9.975 7.87" fill="#1A1918"/><path d="M20.004 57.357l-.9 1.527c-.32-1.006-.903-2.05-1.277-2.788-.72 1.486-1.86 1.516-2.96 1.524.243-3.56-4.228-7.142-2.263-11.204.392-.813.138-1.807-.708-2.233-3-1.524-1.612 4.798-4.61 4.988.574-.716.79-2.217.877-2.347-.637.166-2.166 1.136-2.852-.107 1.754-.954 2.258-2.39 2.532-3.83.35-1.824.51-2.667.865-3.417.368-.802.96-1.496 2.226-3.138-.3.046-3.674.756-4.43.402 5.832-3.582 4.518-8.138 13.415-12.2-2.332-1.73-4.72-3.112-3.008-6.423 2.438 2.93 7.07 1.916 9.57.555-2.47-.495-5.656-2.67-6.413-5.095.932-.144 2.14.866 2.834 1.337.335-.894.467-1.935 1.55-2.16-1.444 3.096 1.414 4.706 4.138 4.72.422 0 2.185-.176 2.185-.176-.28-.58-1.42-2.16-.59-2.802.664.626 1.46 1.125 2.184 1.68 5.298 4.1-2.52 7.902-5.717 9.627-5.02 2.712-3.677 5.937-1.58 6.762-.008.367-.234.528-.582.64-1.466.49-2.842-.555-4.01-1.226.07 2.025-.068 3.97 2.167 5.084l-1.542.564c1.327 1.006 1.73 1.54 3.326 1.748-.747.36-1.672.355-2.464.43.2.56.366 1.318.785 1.82-3.267.388-4.574-1.477-5.584-1.4-2.155.16-2.022 4.217 3.282 4.223l-.55.906s1.006.587 1.926.7c-.352.285-.694.67-.99.964l.847.73c-2.163.388-2.776-1.915-4.18-.805-2.142 1.698 2.58 5.28 7.11 4.746-.383.488-1.445 1.204-1.905 1.577 3.69 3.486 1.87 6.767 3.388 9.17-3.18-.21-5.538-2.545-6.09-5.07m4.15-3.92c1.023-.814 1.87-1.22 1.83-3.183-1.538.784-5.9.742-7.72-1.766-.516-.712.033-1.07.532-.51 1.246 1.414 3.556.773 4.4.364-.134-.484-.508-1.118-.823-1.39.315-.31 1.206-.77 1.39-1.567-.478-.26-2.33-.444-2.33-.444.3-.283.67-.684.448-1.743-1.89.58-4.224-.207-4.756-.908-.52-.688.012-1.333.45-.88.94.99 5.584 2.124 7.31.403-.64-.176-1.348-.75-1.477-1.104 1.598-.16 2.874-1.105 2.978-2.28-.884 0-2.553-.065-3.12-.493.766-.283 1.25-.56 1.49-1.418-2.922-.178-3.154-2.35-3.17-2.71 1.904 1.1 5.255.613 4.39-2.092-1.582-.084-3.18-2.647 1.175-5.004 3.957-2.14 8.46-4.45 8.064-8.254-.26-2.43-4.267-4.094-4.775-5.325-1.674.796-2.012 1.72-1.258 3.268 0 0-3.724.37-4.018-1.922-.13-1.028.56-1.99 1.295-2.725-.418 0-3.225-.75-4.072 1.536-1.576-1.073-2.92-1.034-3.98.1 1.69 1.005 2.74 4.448 5.537 5.465-1.99 1.08-5.208.625-7.085-2.687-1.777 2.677-2.8 5.327 1.01 8.156-6.934 3.157-6.883 9.186-12.914 12.06.614 1.642 1.903 1.642 3.546 1.386-2.608 3.39-.386 6.933-4.513 8.383.384 1.38 1.16 2.482 2.683 2.08-.433.675-.72.66-1.393 1.403 2.256 1.42 4.933.39 5.54-4.167.107-.813 1.23-.305.84.493-2.573 5.32 3.93 9.32 1.63 13.22 2.03-.084 3.574-.242 4.424-.928.413.82.66 1.63.572 2.43 1.12-.228 1.528-.894 1.605-1.65.737 2.14 3.36 4.428 7.565 4.428-2.23-3.173-.155-6.396-3.302-10.026" fill="#D1D6D6"/><path d="M14.185 44.638c.765.8 1.694.88 3.456.77-1.934-.234-3.02-.705-3.694-1.99-.1-.662-.167-1.37-.195-2.13-.058-2.036.61-4.462 2.02-7.117-.01 1.667 1.31 4.286 4.257 4.722-2.65-1.158-4.205-3.766-3.36-6.288.554-.883 1.176-1.793 1.87-2.717.352-.447.69-.877 1.023-1.278-.356 1.287 1.202 2.617 2.243 2.84-.566-.552-1.776-2.343 1.022-5.336-.783.368-1.646.89-2.3 1.404 5.086-5.496 9.265-5.65 11.185-8.413-2.782 1.9-10.145 2.927-13.453 2.03 1.826 1.22 6.227 1.108 7.302.88-3.59 3.49-11.424 7.092-12.78 10.3 1.91-2.096 3.143-2.48 4.794-3.02-1.3 1.943-2.473 3.652-3.28 5.633-2.085 4.527-4.873 4.584-5.056 8.32.95-2.895 2.88-3.628 4.22-5.53-.24 1.214-.347 2.56-.306 4.114.048 1.69.385 3.173.923 4.5-.137 1.847.028 5 2.145 7.08-1.438-1.82-1.747-4.78-1.62-5.933 1.657 3.196 6.382 7.61 8.665 10.578-2.283-3.816-7.882-8.275-9.08-13.42M66.466 29.296c1.645.542 2.886.923 4.793 3.018-1.356-3.207-9.197-6.81-12.786-10.3 1.08.228 5.48.34 7.305-.88-3.305.898-10.67-.128-13.455-2.03 1.924 2.765 6.1 2.92 11.186 8.414-.65-.513-1.515-1.036-2.298-1.404 2.795 2.993 1.588 4.78 1.02 5.335 1.043-.223 2.6-1.55 2.245-2.84.334.4.676.83 1.022 1.277.698.924 1.316 1.834 1.867 2.717.848 2.522-.71 5.13-3.354 6.288 2.946-.435 4.268-3.055 4.253-4.72 1.408 2.654 2.082 5.08 2.018 7.116-.025.76-.093 1.468-.19 2.13-.68 1.285-1.764 1.757-3.694 1.99 1.76.11 2.683.03 3.457-.77-1.203 5.145-6.8 9.602-9.085 13.42 2.285-2.968 7.004-7.382 8.664-10.58.13 1.155-.18 4.113-1.614 5.934 2.112-2.08 2.277-5.233 2.142-7.08.534-1.33.868-2.81.92-4.5.05-1.555-.068-2.9-.304-4.113 1.338 1.9 3.267 2.633 4.22 5.527-.18-3.735-2.97-3.792-5.058-8.32-.805-1.98-1.974-3.69-3.276-5.63" fill="#D1D6D6"/><path d="M75.882 46.823c.08.13.293 1.63.868 2.35-3-.192-1.607-6.514-4.61-4.99-.846.426-1.098 1.42-.704 2.233 1.962 4.062-2.51 7.643-2.26 11.204-1.105-.008-2.253-.038-2.97-1.524-.37.738-.955 1.782-1.273 2.788l-.9-1.527c-.554 2.525-2.91 4.86-6.087 5.07 1.51-2.403-.303-5.684 3.386-9.17-.462-.37-1.52-1.09-1.904-1.576 4.532.536 9.254-3.047 7.107-4.745-1.4-1.11-2.018 1.193-4.178.804l.847-.73c-.296-.296-.642-.678-.99-.964.92-.113 1.924-.7 1.924-.7l-.55-.907c5.306-.007 5.432-4.064 3.286-4.224-1.008-.077-2.322 1.79-5.586 1.402.413-.504.582-1.264.784-1.823-.786-.074-1.72-.068-2.463-.43 1.596-.208 1.997-.74 3.323-1.747l-1.537-.564c2.233-1.114 2.096-3.06 2.163-5.083-1.166.674-2.55 1.718-4.01 1.228-.346-.113-.573-.274-.582-.64 2.097-.826 3.432-4.05-1.58-6.763-3.196-1.725-11.016-5.527-5.716-9.628.723-.554 1.513-1.053 2.18-1.68.832.642-.304 2.223-.59 2.804 0 0 1.762.178 2.18.178 2.732-.015 5.595-1.627 4.146-4.722 1.085.226 1.213 1.267 1.544 2.16.696-.47 1.904-1.48 2.84-1.336-.76 2.424-3.94 4.6-6.414 5.095 2.498 1.36 7.13 2.374 9.567-.554 1.71 3.312-.67 4.693-3.008 6.427 8.897 4.06 7.586 8.613 13.42 12.197-.754.354-4.136-.358-4.437-.402 1.272 1.642 1.866 2.336 2.234 3.137.354.75.51 1.59.86 3.416.278 1.44.78 2.876 2.53 3.828-.685 1.245-2.212.275-2.842.11m-.347-9.054c1.642.255 2.933.255 3.545-1.388-6.03-2.872-5.98-8.9-12.914-12.058 3.81-2.83 2.783-5.48 1.014-8.157-1.876 3.313-5.104 3.768-7.084 2.688 2.793-1.017 3.845-4.46 5.535-5.466-1.057-1.134-2.41-1.173-3.98-.1-.854-2.288-3.654-1.535-4.074-1.535.732.733 1.427 1.697 1.297 2.726-.29 2.294-4.017 1.925-4.017 1.925.75-1.55.418-2.474-1.255-3.27-.51 1.233-4.514 2.894-4.77 5.324-.402 3.804 4.1 6.114 8.058 8.254 4.355 2.357 2.757 4.92 1.18 5.004-.875 2.705 2.48 3.19 4.383 2.093-.008.36-.25 2.532-3.172 2.71.247.856.728 1.134 1.496 1.42-.574.425-2.24.49-3.124.49.107 1.175 1.383 2.117 2.98 2.276-.127.355-.835.93-1.477 1.107 1.728 1.72 6.368.588 7.313-.403.432-.453.962.192.448.878-.535.702-2.868 1.49-4.757.91-.217 1.058.148 1.46.444 1.743 0 0-1.85.186-2.327.445.18.796 1.08 1.256 1.392 1.568-.313.27-.688.905-.82 1.39.845.408 3.156 1.048 4.394-.365.504-.56 1.052-.203.54.51-1.826 2.508-6.186 2.55-7.726 1.766-.043 1.963.805 2.37 1.83 3.184-3.15 3.63-1.07 6.852-3.3 10.025 4.2 0 6.826-2.29 7.563-4.428.082.756.484 1.422 1.604 1.65-.085-.8.165-1.61.57-2.43.853.686 2.402.844 4.425.93-2.298-3.903 4.207-7.903 1.63-13.222-.384-.8.736-1.306.844-.494.602 4.557 3.282 5.587 5.54 4.166-.682-.743-.96-.728-1.394-1.404 1.52.403 2.295-.698 2.686-2.08-4.128-1.45-1.908-4.994-4.517-8.382M33.548 54.365l1.24-.942c.22-.167.36-.273.615-.24l1.746.23c.095.42.374.83.374.83l-1.858-.393c-.263-.03-.34-.018-.59.16l-.878.664c-.174.138-.178.352-.08.565l.143.306-.616.465-.233-.442c-.238-.473-.255-.903.138-1.203m2.838-3.284l-.324.172c-.22.13-.335.187-.53-.057l-.14-.175c-.068-.083-.092-.292.052-.448l1.383-1.615-1.276-1.046 1.626.6.594-.74c.174.15.113.577.113.577.658 0 2.57.95 2.643 3.328 0 0 .43.64.98.673l2.816.17c.465 0 1.633-.89 3.133-.048.378-.23.784-.412 1.2-.458 1.322-.098 2.295.823 3.02 1.75.528.67 1.253 1.698 1.253 1.698-.31.37-.62.495-.876.4-.392-.197-.517-.513-.64-.948-.198-.69-.958-1.282-.958-1.282.257.465.312.99.435 1.473-1.1-1.087-1.31-2.42-2.078-2.6-.34-.085-.735.06-1.105.487.39.898.37 1.943.767 2.64.3.522.364.568.5.682.326.234.14.65.09.957l-.417 2.613h-.7l.46-2.56c.142-.777-2.045-.777-3.165-2.263-.955 1.114-3.632.835-4.79.66-.467-.067-.922-.04-1.18.422-.148.26-.403.182-.556.144l-2.11-.456c-.37-.086-.532-.012-.697.328l-.424.875c-.094.205-.09.353.08.517l.2.215c-.12.422-.5.74-.5.74l-.463-.52c-.223-.26-.235-.642-.057-1.013l.683-1.424c.08-.156.224-.33.513-.33l2.613-.042-.8-1.302c-.598-.98.392-2.72.245-3.543-.074 1.105-1.406.6-1.614.75m10.873 6.024l-1.13 2.78h-.7l1.126-2.692c.117-.346-.104-.51-.385-.89.42.236.72.388 1.227.585-.046.076-.098.12-.138.217m-13.75-.315l1.27-1.076-.194-.388c-.138-.273-.064-.294.083-.4l.666-.5c.156-.128.318-.113.51-.067l2.01.472h-2.12c-.494.032-.636.22-.81.582l-.147.3-.548 1.12c-.185.386-.28.898.205 1.482l.386.456-.78 1.584h.66l.538-1.1c.044-.04.843-.766 1.01-1.524-.228-.184-.393-.316-.265-.58l.245-.523c.08-.176.107-.248.34-.2l2.112.457c.263.07.65.186.93-.237.29-.443.33-.394 1-.326l1.077.113c1.47.14 2.94-.23 3.513-.683.2.457.597.808.784 1.163.07.13-.044.318-.136.55l-1.208 2.89h1.864l1.056-2.64c.098-.25.24-.452.35-.55l-.606 3.19h1.808l.48-3.16c.107-.7.044-.928-.29-1.214-.758-.636-.74-1.974-.983-2.787.13-.073.277-.11.455-.09.395.04.69 1.045 1.156 1.69.925 1.303 2.193 2.74 3.64.716-.14-.23-.294-.443-.468-.642l-.404-.472c-.235-.263-1.358-1.545-1.823-2.008-1.063-1.067-2.692-.906-3.342-.388-1.472-.77-3.024.04-3.39.01l-2.535-.153c-.114-.008-.29-.048-.412-.244l.47-.155c-.442-1.833-1.55-3.37-3.486-3.632 0 0-.113-.58-.407-.692l-.578.682c-.163.022-.34.07-.487.135l-2.47-.918 1.855 1.873s-.962 1.362-1.235 1.64c-.182.254-.164.454.038.7l.36.472c.188.242.39.235.687.08l.407-.21c.174-.148.773.145 1.025-.088-.163.533-.242 1.045-.282 1.454l-1.664-.2c-.366-.048-.53 0-.754.173l-1.418 1.092c-.465.357-.61.97-.32 1.57l.572 1.197M38.93 20.837c.676.468 1.875.968 1.875.968v-.798l-2.638-1.01s0 .323.762.84M40.805 19.874v-.79l-2.995-1.07s.357.38 1.12.9c.676.467 1.875.96 1.875.96M40.805 18.072v-.8l-3.278-1.206s.64.52 1.402 1.038c.676.468 1.875.968 1.875.968" fill="#D1D6D6"/><path d="M50.013 28.933h3.353c-.14-.486-.662-.976-1.64-.976-.926 0-1.48.534-1.713.976M46.506 16.066l-3.273 1.206v.8s1.2-.5 1.873-.968c.764-.518 1.4-1.038 1.4-1.038M45.87 19.997l-2.637 1.01v.798s1.198-.5 1.875-.968c.762-.517.762-.84.762-.84M46.225 18.013l-2.992 1.07v.79s1.2-.492 1.875-.958c.762-.522 1.117-.902 1.117-.902M32.3 27.957c-.975 0-1.497.49-1.634.976h3.354c-.238-.442-.787-.976-1.72-.976" fill="#D1D6D6"/><path d="M42.018 15.67l-5.384-2.126c.456-1.083 2.568-2.006 5.384-2.006 2.817 0 4.926.923 5.382 2.006l-5.382 2.127zm4.01 6.647l-3.632 1.91v-7.71l4.93-1.677-1.3 7.477zm4.243 3.216c-1.36.236-2.53 1.903-3.488 3.4l-.11.174h-1.02l-.002.177c-.108 1.157-1.206 2.73-3.633 2.73-1.12 0-1.965-.343-2.546-.81-.504-.41-.817-.916-.972-1.397-.058-.18-.093-.352-.11-.523l-.007-.177h-1.015l-.11-.174c-.964-1.497-2.133-3.164-3.488-3.4l3.703-2.148 4.548 2.472 4.544-2.472 3.71 2.148zm4.995 5.67c-.388 1.013-.703 2.108-.703 3.204v11.78h-1.37c-.62-.602-1.146-2.613-1.146-2.613-.34.727.05 2.188.414 2.613h-1.764c-.437-.59-.816-2.683-.816-2.683-.527.602-.193 2.23.134 2.683h-1.17c-.076-.836.163-1.748.163-1.748-.61-.114-1.264-.438-1.26-1.12.308.29.433.287.863.28l.5-.394c-1.655.052-1.73-1.76-.422-2.61-1.308.042-2.288-.735-1.808-2.128-.934-.482-1.263-2.058-.573-2.75-.5-.542-.583-1.6-.263-2.327-.66 0-1.402-.264-1.817-.714-.03.015-.068.026-.104.037.826-.337 1.523-.86 1.996-1.51h9.145zm-.7 23.4c0 2.458-1.135 4.322-3.02 5.36l.676-1.378h-.654l-.867 1.762c-.9.34-1.922.527-3.05.527-3.447 0-4.357.14-5.63 1.41-1.28-1.27-2.188-1.41-5.627-1.41-1.122 0-2.138-.184-3.037-.518h.025l.87-1.77h-.656l-.762 1.547c-.182-.086-.357-.178-.53-.28l.63-1.268h-.65l-.466.946c-1.477-1.088-2.344-2.782-2.344-4.927V46.88h25.093v7.723zm-17.08-14.106l1.058.13c.078.58-.073 1.564-.452 2.11l-1.022-.296c.272-.65.34-1.25.416-1.943zm-1.524-.776s.97-.046 1.246.058c.203.084.065.423-.195.387-.275-.034-1.05-.444-1.05-.444zm-.064-3.855l-.87 3.183.296-5.132 1.352-1.155.688 1.51-1.738 4.982.458-3.354c.044-.235-.148-.26-.186-.033zm-.67 5.303c-.458.186-.924-.064-.78-.36.21.194.804.098.804.098l-.024.262zm-.857.425c.208.205.847.128.847.128l.025.127c-.28.37-1.05.205-.873-.254zm-1.004-2.047c-.243-.163-.133-.518.137-.518.296.007.69.343 1.083.51 0 0-1.024.137-1.22.008zm.97 2.818s.294.126.664.154c-.043.202-.197.4-.45.343-.208-.045-.3-.305-.214-.496zm.688-1.92c-.492.158-.71-.196-.685-.497.96-.354 1.388-.126 1.672.055.26.163.472.625.823.916-.06.394-.182.966-.323 1.35-.983-.255-1.035-1.12-.665-1.65-.208-.242-.426-.303-.823-.175zm4.267.28l1.056.126c.102.582-.094 1.81-.492 2.397l-1.074-.31c.43-.564.587-1.566.51-2.212zm1.813.223l.87.11c.137.72.048 1.97-.412 2.682l-1.012-.297c.444-.6.65-1.84.555-2.496zm1.56.193h.018c.227.034.464-.003.68-.094.47.675.837 2.2.274 3.157-.32.002-.632-.053-.925-.134l-.234-.07c.475-.742.404-2.043.186-2.86zm1.326-.513l.614-.603c.632.547 1.455 1.774 1.196 2.937l-.67.614c-.138.135-.283.236-.428.325.418-1.042-.117-2.64-.713-3.273zm3.618.346c-.135.18-.247.39-.317.618l-.747.69c.15-1.096-.585-2.392-1.258-2.92l.8-.78.155.158c-.266.7.254 2.07 1.368 2.235zm-1.99-5.3c-.394.75-.354 1.618.108 2.404l-.308.302c-1.342-.166-1.873-2.17-1.873-2.17-.025.175-.043.358-.04.533-.783-.29-1.28-.985-1.24-1.94.297.167.63.283.986.346l.092-.59c-.94-.162-1.487-.75-1.698-1.44l-.125-.022c.164.015.33.028.5.028.557 0 1.086-.086 1.582-.23.39.554 1.08.95 1.776 1.03-.11.456-.056 1.033.24 1.746zm-7.702-4.47c.648.886 1.7 1.543 2.944 1.802.107.467.358.978.854 1.393-.205 1.377.386 2.663 1.87 3.006.153.7.59 1.23 1.32 1.484l-1.032 1.19c-.392.457-.906.604-1.332.55l-4.603-.524c.197-.512-.332-1.105-1.787-.85l1.81-5.057-1.106-2.35-2.09 1.786-.156 5.307-.887-.438c-1.17-.502-1.51 1.608-.4 1.617l.44.004c-.027.22.04.456.21.53-.21.09-.27.483-.008.62-.27.127-.3.527-.088.702-.233.388-.267 1.236.54 1.448.656.175 1.072-.538 1.21-.95l7.16 2.217c1.015.292 1.736.13 2.578-.61l1.868-1.633c-.233 1.068.15 2.032.963 2.35 0 0-.117.956-.08 1.39h-18.64v-11.78c0-1.096-.318-2.19-.696-3.204h9.14zm-1.21-16.363l4.928 1.676v7.71l-3.63-1.91-1.297-7.476zm11.97-.918c0-1.886-3.167-3.575-6.66-3.575-3.496 0-6.664 1.69-6.664 3.575l.075.46 1.39 8.008-6.604 3.85c-.704.413-1.585 1.55-1.696 2.693h1.204c.2-1.14 1.105-2.41 2.792-2.333 1.526.083 2.426 1.01 3.323 2.333l.232.35.332.524h-9.715c.712 1.43 1.394 2.95 1.394 4.6v20.196c0 5.196 3.99 7.67 8.313 7.67 3.337 0 3.787-.15 5.628 1.69 1.837-1.84 2.284-1.69 5.63-1.69 4.32 0 8.313-2.474 8.313-7.67V34.407c0-1.65.674-3.17 1.387-4.6h-9.718l.337-.523.23-.35c.892-1.323 1.796-2.25 3.322-2.334 1.68-.076 2.59 1.192 2.786 2.333h1.205c-.11-1.142-.994-2.28-1.694-2.693l-6.604-3.85 1.393-8.01.067-.458z" fill="#D1D6D6"/><path d="M53.995 38.817l.007-.592c-1.81-.04-2.228-2.18-2.228-2.18-.527 1.573.856 2.745 2.22 2.772M51.706 42.435l-.184-.56c-1.544.395-2.34-2.053-2.34-2.053-.497 1.78 1.23 3.04 2.524 2.613M52.778 40.165c-1.845.293-2.604-1.855-2.604-1.855-.203 1.17.554 2.354 1.774 2.48-.275 1.526 1.144 2.31 2.37 1.765l-.176-.53c-1.067.353-2.066-.7-1.364-1.86M51.673 34.035l.015-.59c-2.436-.504-2.23-2.18-2.23-2.18-.527 1.58.855 2.745 2.215 2.77M36.235 58.585l-.875 1.77h.658l.872-1.77h-.655M37.55 58.585l-.87 1.77h.66l.864-1.77h-.655M42.825 58.585l-.867 1.77h.652l.872-1.77h-.657M44.15 58.585l-.878 1.77h.66l.867-1.77h-.65M41.51 58.585l-.876 1.77h.658l.872-1.77h-.655M49.213 60.356h.655l.872-1.77h-.656l-.87 1.77M38.87 58.585l-.87 1.77h.657l.87-1.77h-.658M40.186 58.585l-.87 1.77h.66l.87-1.77h-.66M37.2 49.074c-.12 0-.223.12-.223.27 0 .146.104.265.224.265.128 0 .232-.12.232-.265 0-.152-.104-.27-.23-.27M36.936 8.19l1.035-2.202 1.927 1.022 2.123-2.096 2.125 2.096 1.922-1.022 1.03 2.2 1.276-.197c-.326.616-.574 1.153-.802 1.906-1.396-.816-3.472-1.444-5.55-1.444-2.083 0-4.153.628-5.552 1.444-.233-.753-.476-1.29-.807-1.905l1.276.2zm5.085.963c2.705 0 4.87.896 6.066 1.86 0 0 .358-2.148 1.568-4.033l-2.177.245-1.14-2.424-2.192 1.14-2.124-2.11-2.123 2.11L37.7 4.8l-1.14 2.425-2.176-.245c1.213 1.885 1.567 4.033 1.567 4.033 1.195-.964 3.364-1.86 6.07-1.86z" fill="#D1D6D6"/><path d="M44.243 4.814c.318.027.598-.21.624-.527.03-.313-.43-1.16-.43-1.16s-.693.746-.715 1.065c-.028.313.208.59.52.622M47.813 6.11c.283.15.627.037.778-.244.153-.275.054-1.23.054-1.23s-.922.41-1.072.694c-.144.28-.04.626.24.78M39.79 4.814c.32-.03.556-.31.526-.622-.028-.32-.713-1.064-.713-1.064s-.46.846-.43 1.16c.023.315.307.553.617.526M36.224 6.11c.282-.154.39-.5.238-.78-.15-.283-1.07-.695-1.07-.695s-.095.956.058 1.23c.147.282.493.396.774.244M75.717 26.16c.236.523.7 2.34-.414 3.727-1.268-2.54-3.016-4.712-4.427-5.65-.31-.2.17-.556 1.038-.67 2.634-.498 5.72.618 7.186 1.007-.683.514-1.24.74-1.936.83 1.067.893 1.843 1.65 2.396 2.492-1.038.26-1.616-.396-3.843-1.736m3.32-.43c.76-.27 1.348-1 1.64-1.667-1.934-.28-7.075-2.438-11.3-.68 1.583-1.504 3.003-1.697 3.137-3.858.658.472 1.767.738 2.39-.388-.434-1.29-1.536-.245-1.69-.6-.215-.49 1.39.155 1.733-1.518-1.247-.43-1.62.59-1.842.353-.207-.226.792-.654.056-2.002-1.298.76-.62 1.617-.894 1.71-.334.134-.073-.913-1.506-.864-.14 1.54 1.35 1.59 1.102 1.836-.293.3-.682-.887-1.766-.286.02 1.245 1.025 1.927 2.067 1.634-.168 2.366-2.336 1.925-3.954 4.59 3.42 1.753 4.967 4.814 7.074 6.926.696-.49 1.885-2.687 1.885-2.687 2.278 1.765 3.88.007 3.88.007-.784-.803-.813-1.413-2.014-2.508M41.384 67.693l-1.48-.056-.172.595.186.008c.06 0 .06-.115.115-.18.03-.02.298-.065.512-.043l.62.047c-.366.76-1.323 1.478-1.31 1.982.014.27.286.325.448.315.298-.008.395-.22.472-.543.18-.75.544-1.323.805-2.18l-.184.007-.012.05M42.396 68.577l.025-.456h1.29l-.068-.51c-.354.012-.87.128-1.347.13l-.088.997c.597-.026.986.233.986.86 0 .232-.153.67-.42.7-.064.01-.146-.012-.184-.043-.132-.097.04-.202.04-.364 0-.205-.213-.28-.353-.254-.223.013-.303.156-.303.333 0 .367.544.468.78.468.527 0 1.14-.294 1.14-.893 0-.787-.882-.952-1.498-.968M45.484 68.984c-.458 0-.523-.715-.523-1.06 0-.1.09-.237.19-.237.42 0 .536.972.568 1.246-.068.026-.148.05-.234.05m-.29-1.433c-.46 0-.84.345-.84.814 0 .743.795.987 1.387.705.073.575-.044.99-.262 1.003-.187 0-.16-.14-.187-.257-.048-.226-.224-.286-.408-.226-.19.055-.22.227-.19.353.088.293.45.3.62.278.76-.087 1.078-.648 1.078-1.273 0-.725-.415-1.397-1.197-1.397M38.86 67.4c-.068.082-.384.48-1.07.988l.058.103c.075-.04.196-.097.402-.22l-.402 1.405c-.02.077-.115.086-.16.077l-.24-.036-.046.166 1.31.235.037-.163-.225-.052c-.067-.02-.11-.066-.097-.14l.596-2.338-.163-.025" fill="#D1D6D6"/><path d="M48.768 69.06l-1.16-3.775c2.47-.51 4.19-1.035 5.504-1.543v2.356l2.038.82c-1.72.786-3.857 1.565-6.382 2.143m-6.747 2.207c-2.307 0-4.554-.345-6.48-.817l1.225-3.956c.812.188 2.84.437 5.256.437 2.417 0 4.438-.248 5.257-.436l1.226 3.956c-1.932.472-4.184.817-6.482.817M28.883 66.92l2.044-.822v-2.356c1.31.508 3.034 1.034 5.505 1.543l-1.157 3.776c-2.52-.577-4.66-1.356-6.39-2.14m24.86-1.314V62.72c-2.232 1.022-5.07 1.852-8.723 2.182l-.166 1.03c.312.044.703.083 1.23.115-1.358.188-3.103.278-4.063.278-.96 0-2.705-.09-4.06-.278.522-.032.912-.07 1.224-.114l-.164-1.03c-3.654-.33-6.5-1.16-8.725-2.183v2.886l-3.028 1.244c2.242 1.167 4.823 2.118 7.803 2.887l-.35 1.21c1.71.498 4.438 1.008 7.3 1.008s5.592-.51 7.3-1.01l-.355-1.208c2.98-.77 5.566-1.72 7.807-2.887l-3.028-1.244M4.477 27.896c.552-.842 1.323-1.6 2.398-2.49-.702-.09-1.253-.318-1.94-.832 1.468-.39 4.56-1.505 7.19-1.007.865.114 1.354.47 1.038.67-1.416.938-3.162 3.11-4.434 5.648-1.11-1.384-.644-3.202-.41-3.725-2.223 1.34-2.804 1.995-3.843 1.736m2.39.333s1.19 2.196 1.884 2.686c2.11-2.112 3.658-5.173 7.077-6.927-1.617-2.665-3.79-2.22-3.948-4.588 1.035.29 2.043-.394 2.064-1.636-1.09-.595-1.475.59-1.77.286-.243-.25 1.247-.296 1.105-1.835-1.438-.044-1.172.997-1.51.863-.27-.096.405-.952-.898-1.71-.732 1.355.27 1.775.06 2.003-.22.236-.596-.783-1.84-.354.337 1.672 1.947 1.027 1.728 1.517-.15.355-1.252-.687-1.684.602.618 1.123 1.73.857 2.384.387.137 2.168 1.555 2.347 3.14 3.855-4.223-1.757-9.365.4-11.305.682.296.667.884 1.395 1.643 1.66-1.196 1.104-1.224 1.712-2.01 2.51 0 0 1.6 1.76 3.88-.005M40.166 26.62v1.272c.44-.527 1.287-.425 1.287-.425v1.83s-.03.903-.348 1.294h1.833c-.32-.39-.35-1.293-.35-1.293v-1.83s.846-.102 1.284.425V26.62h-3.706" fill="#D1D6D6"/><path d="M82.147 27.167c-.222-.23-.355-.437-.54-.725-.095-.148-.2-.304-.317-.475.32-.37.592-.8.796-1.268l.82-1.867-2.016-.29c-.34-.05-.89-.194-1.528-.362-1.236-.323-2.82-.74-4.552-.92.592-.26 1.092-.726 1.442-1.358l.33-.597s-.086-.837-.412-1.1c.125-.26.22-.545.285-.857l.272-1.336-1.287-.44c-.2-.07-.4-.12-.6-.152-.072-.246-.18-.504-.327-.776l-.764-1.402-1.382.808c-.343.202-.632.43-.867.69-.206-.04-.425-.06-.657-.06 0 0-.786-.086-1.658.23l-1.112-1.154-1.316-1.407c-1.23-1.318-2.898-1.707-4.6-1.06-.65-.647-1.662-1.185-3.234-1.185-.532 0-.998.064-1.276.1 0 0-2.164.395-3.38 1.55l-1.475-.702c-.99 1.556-2.68 2.05-2.68 2.05-.116-.454-.315-.88-.596-1.267l.097-.55c0-.016.33-1.875 1.344-3.45l1.76-2.74-2.494.28c.006-.247-.004-.538-.04-.886l-.222-2.132-1.954.882c-.217.098-.398.193-.566.284l-.386-.823-.896.466c-.09-.222-.205-.47-.362-.76L44.763.517 43.3 2.096c-.15.162-.278.31-.39.455l-.887-.883-.894.888c-.113-.144-.236-.293-.386-.454L39.277.508l-1.036 1.9c-.156.29-.27.537-.36.76l-.892-.465-.388.822c-.17-.09-.352-.186-.568-.286l-1.962-.882-.216 2.14c-.036.345-.045.635-.04.88l-2.497-.28 1.766 2.743c1.016 1.57 1.34 3.427 1.34 3.44l.093.55c-.284.393-.48.82-.596 1.274 0 0-1.596-.683-2.666-2.053l-1.506.72c-1.718-1.16-2.783-1.613-4.636-1.665-1.57-.043-2.584.538-3.232 1.184-1.703-.646-3.367-.255-4.594 1.06 0 0-.806.876-1.317 1.406-.512.532-1.264.97-1.264.97s-1.07-.24-2.17.015c-.233-.258-.526-.488-.875-.693l-1.382-.805-.76 1.41c-.146.27-.25.524-.323.768-.197.032-.398.08-.598.15l-1.28.442.268 1.328c.064.32.158.606.286.866-.074.14-.14.293-.194.453l-.217.644.33.597c.346.632.845 1.1 1.438 1.36-1.732.18-3.317.597-4.557.922-.635.168-1.186.312-1.526.363l-2.024.292.46 1.042.368.827c.21.465.482.893.8 1.26-.118.17-.63.97-.854 1.2l-1.022 1.04.98 1.084c.123.133 1.224 1.287 3.005 1.29.485 0 .97-.086 1.448-.255.475.743 1.037 1.494 1.554 1.864-.948 1.112-2.026 2.076-3.56 2.806l-1.28.61.55 1.465c.358.884 1.055 1.855 2.407 2.226-.29.863-.43 1.685-.55 2.413-.29 1.733-.413 2.45-1.94 2.987l-1.37.48.39 1.398c.32 1.14.792 1.893 1.307 2.388l-.91 1.003s2.162 1.62 4.282 1.818c.03.004 1.84.12 2.65-.915.325 1.17.84 2.252 1.304 3.234.958 2.014 1.467 3.208.826 4.295l-1.447 2.455 2.846-.12c1.243-.05 2.4-.125 3.397-.374 0 .056-.003.107-.01.157l-.232 2.11 2.496-.526c.265-.078.508-.18.734-.302 1.546 1.806 4.17 3.217 7.708 3.217h.206l-4.067 1.67 2.96 1.54c1.95 1.016 4.118 1.867 6.588 2.587l-.345 1.184 1.487.435c.86.254 3.96 1.075 7.734 1.075 3.777 0 6.874-.823 7.734-1.074l1.484-.434-.345-1.182c2.475-.722 4.642-1.573 6.592-2.588l2.962-1.54-4.07-1.67h.205c3.535 0 6.16-1.412 7.705-3.218.224.12.47.224.732.303l2.493.527-.23-2.107c-.003-.05-.006-.102-.006-.157.996.247 2.153.32 3.395.373l2.844.12-1.442-2.455c-.643-1.088-.132-2.28.824-4.295.467-.98.98-2.063 1.305-3.236.55.418 1.138.667 1.726.798 0 0 .456.136.892.148 1.26.037 1.887-.32 2.753-.864l1.57-.988-.92-1.004c.516-.495.987-1.248 1.307-2.38l.396-1.403-1.375-.48c-1.528-.536-1.648-1.254-1.94-2.987-.123-.73-.258-1.55-.55-2.414 1.35-.372 2.046-1.344 2.405-2.225l.548-1.465-1.28-.61c-1.534-.73-2.612-1.693-3.56-2.806.52-.372 1.082-1.124 1.56-1.865.475.17.957.252 1.446.254 1.78 0 2.884-1.155 3.003-1.287l.983-1.082-1.02-1.043" fill="#FFF"/><path d="M42.02 62.288c-1.277-1.27-2.188-1.41-5.633-1.41-4.114 0-6.91-2.413-6.91-6.27v-7.72h25.087v7.72c0 3.857-2.79 6.27-6.915 6.27-3.447 0-4.357.14-5.63 1.41M29.477 46.194V34.417c0-1.098-.316-2.192-.696-3.202h9.137c.84 1.15 2.36 1.923 4.104 1.923 1.74 0 3.26-.772 4.1-1.923h9.14c-.387 1.01-.7 2.104-.7 3.202v11.777H29.477" fill="#FFE52B"/><path d="M30.93 63.745v2.353l-2.042.82c1.727.786 3.868 1.565 6.387 2.142l1.16-3.772c-2.473-.51-4.195-1.038-5.506-1.543M42.02 66.93c-2.412 0-4.443-.248-5.254-.437l-1.224 3.957c1.924.472 4.174.817 6.48.817 2.297 0 4.547-.345 6.48-.817l-1.228-3.957c-.816.19-2.837.438-5.253.438M53.11 63.745c-1.312.505-3.032 1.032-5.504 1.543l1.162 3.772c2.522-.577 4.658-1.356 6.38-2.14l-2.04-.822v-2.353M22.832 26.126c-2.8 2.993-1.588 4.783-1.022 5.335-1.042-.223-2.597-1.55-2.244-2.837-.33.398-.67.83-1.02 1.274-.696.925-1.318 1.835-1.87 2.715-.847 2.524.71 5.13 3.356 6.286-2.943-.432-4.264-3.05-4.255-4.717-1.407 2.657-2.077 5.08-2.016 7.117.028.756.093 1.465.193 2.13.676 1.283 1.762 1.754 3.694 1.988-1.76.11-2.687.03-3.453-.77 1.198 5.144 6.794 9.6 9.074 13.416-2.28-2.965-7.004-7.38-8.66-10.575-.126 1.154.18 4.11 1.62 5.93-2.116-2.078-2.28-5.232-2.144-7.077-.537-1.328-.875-2.81-.92-4.5-.044-1.552.066-2.897.302-4.11-1.337 1.9-3.266 2.634-4.217 5.525.183-3.73 2.97-3.79 5.052-8.315.808-1.98 1.98-3.69 3.28-5.63-1.65.54-2.885.925-4.792 3.016 1.355-3.205 9.187-6.807 12.774-10.295-1.076.227-5.475.338-7.3-.88 3.31.896 10.67-.13 13.45-2.03-1.92 2.76-6.097 2.917-11.182 8.408.655-.51 1.518-1.032 2.3-1.402m3.822-.318c3.198-1.726 11.012-5.525 5.716-9.623-.724-.556-1.517-1.056-2.185-1.68-.828.638.31 2.22.594 2.8 0 0-1.764.178-2.188.178-2.724-.012-5.58-1.625-4.135-4.72-1.084.225-1.218 1.266-1.55 2.16-.694-.47-1.902-1.48-2.833-1.338.758 2.42 3.942 4.602 6.412 5.096-2.5 1.362-7.13 2.373-9.567-.554-1.712 3.308.672 4.692 3.006 6.425-8.892 4.058-7.58 8.61-13.413 12.193.757.355 4.13-.358 4.43-.4-1.266 1.642-1.858 2.335-2.227 3.133-.354.75-.514 1.595-.865 3.418-.274 1.44-.776 2.876-2.527 3.83.686 1.24 2.212.27 2.85.105-.087.13-.3 1.628-.874 2.348 2.995-.193 1.607-6.51 4.606-4.99.845.427 1.1 1.42.71 2.235-1.97 4.06 2.504 7.64 2.26 11.2 1.1-.01 2.24-.038 2.96-1.524.372.74.955 1.78 1.277 2.787l.897-1.526c.55 2.525 2.907 4.86 6.09 5.068-1.52-2.4.3-5.682-3.388-9.168.46-.37 1.52-1.086 1.9-1.573-4.525.532-9.246-3.048-7.103-4.747 1.4-1.11 2.013 1.194 4.177.806l-.845-.73c.297-.293.636-.678.988-.964-.918-.112-1.924-.7-1.924-.7l.548-.906c-5.3-.006-5.436-4.06-3.282-4.223 1.013-.074 2.32 1.79 5.583 1.402-.417-.503-.584-1.26-.78-1.823.787-.073 1.714-.066 2.46-.428-1.595-.207-2-.74-3.324-1.746l1.543-.564c-2.236-1.114-2.1-3.058-2.17-5.083 1.17.674 2.545 1.717 4.01 1.23.35-.116.575-.277.582-.64-2.096-.825-3.437-4.05 1.58-6.762M70.573 37.73c.234 1.21.353 2.557.303 4.11-.05 1.687-.387 3.17-.92 4.498.135 1.845-.03 5-2.143 7.078 1.433-1.82 1.744-4.777 1.617-5.93-1.662 3.194-6.38 7.61-8.662 10.575 2.283-3.815 7.88-8.273 9.08-13.416-.773.8-1.695.882-3.455.772 1.93-.235 3.014-.706 3.69-1.99.102-.664.167-1.373.194-2.13.064-2.035-.61-4.46-2.017-7.115.013 1.667-1.307 4.286-4.254 4.72 2.642-1.157 4.202-3.764 3.354-6.288-.55-.88-1.168-1.79-1.867-2.715-.348-.445-.688-.875-1.022-1.274.354 1.286-1.2 2.614-2.244 2.838.568-.55 1.775-2.34-1.02-5.334.784.37 1.65.893 2.3 1.402-5.085-5.49-9.257-5.646-11.185-8.41 2.786 1.903 10.15 2.93 13.453 2.03-1.824 1.22-6.225 1.11-7.302.88 3.587 3.49 11.427 7.09 12.778 10.295-1.905-2.09-3.146-2.475-4.788-3.014 1.3 1.94 2.468 3.647 3.273 5.627 2.09 4.527 4.876 4.584 5.058 8.318-.95-2.895-2.88-3.626-4.217-5.526m5.612 5.164c-.35-1.824-.508-2.668-.86-3.416-.367-.8-.96-1.493-2.234-3.136.303.043 3.683.756 4.437.4-5.833-3.582-4.52-8.134-13.416-12.19 2.338-1.734 4.72-3.117 3.01-6.428-2.437 2.93-7.07 1.918-9.566.557 2.474-.493 5.654-2.672 6.412-5.095-.936-.142-2.142.868-2.837 1.337-.332-.893-.462-1.935-1.546-2.16 1.448 3.096-1.413 4.71-4.144 4.72-.417 0-2.18-.177-2.18-.177.283-.58 1.42-2.162.59-2.8-.668.624-1.457 1.124-2.18 1.68-5.3 4.098 2.52 7.9 5.716 9.623 5.008 2.71 3.674 5.935 1.58 6.76.005.365.232.526.58.643 1.46.487 2.84-.556 4.005-1.23-.065 2.024.074 3.97-2.16 5.084l1.536.564c-1.326 1.006-1.726 1.54-3.32 1.746.74.362 1.674.355 2.46.43-.202.56-.373 1.318-.784 1.82 3.266.39 4.578-1.475 5.585-1.4 2.146.16 2.02 4.216-3.284 4.222l.55.908s-1.003.586-1.926.698c.35.286.695.67.99.964l-.846.73c2.16.388 2.78-1.916 4.18-.806 2.143 1.7-2.578 5.28-7.106 4.747.38.486 1.442 1.203 1.904 1.575-3.69 3.484-1.878 6.765-3.387 9.17 3.175-.212 5.53-2.547 6.09-5.07l.895 1.525c.32-1.006.91-2.047 1.276-2.788.717 1.485 1.864 1.515 2.967 1.522-.25-3.558 4.222-7.138 2.26-11.2-.393-.81-.14-1.807.705-2.233 3.002-1.522 1.61 4.795 4.61 4.988-.575-.72-.79-2.22-.87-2.35.633.167 2.155 1.14 2.842-.106-1.747-.952-2.25-2.39-2.53-3.828" fill="#FFF"/><path d="M46.12 31.215c-.84 1.15-2.362 1.923-4.1 1.923-.403 0-.795-.044-1.163-.117.102.476.347.965.854 1.388-.205 1.377.39 2.666 1.868 3.005.16.7.59 1.233 1.323 1.484l-1.028 1.19c-.397.456-.915.6-1.332.55l-4.602-.525c.2-.51-.333-1.102-1.79-.848l1.807-5.06-1.1-2.346-2.09 1.785-.154 5.306-.898-.44c-1.158-.503-1.5 1.61-.396 1.618l.444.005c-.03.216.04.457.212.534-.208.083-.27.477-.01.615-.263.127-.3.528-.088.7-.227.392-.27 1.236.535 1.45.663.173 1.08-.538 1.214-.95l7.16 2.217c1.008.29 1.736.126 2.576-.612l1.87-1.634c-.236 1.068.148 2.032.96 2.35 0 0-.13.98-.08 1.386l2.506.004h3.945V34.42c0-1.1.313-2.195.7-3.205h-9.14M35.395 51.03l.14.174c.194.24.307.183.53.055l.325-.173c.204-.153 1.536.354 1.612-.753.147.827-.836 2.567-.245 3.54l.8 1.31-2.612.037c-.287 0-.435.173-.514.33l-.682 1.417c-.177.373-.165.763.06 1.02l.46.52s.38-.322.502-.74l-.205-.21c-.17-.165-.17-.316-.076-.52l.42-.873c.163-.343.326-.416.697-.33l2.11.456c.157.037.407.113.557-.145.256-.46.715-.49 1.18-.42 1.157.175 3.833.452 4.788-.662 1.12 1.487 3.31 1.487 3.165 2.265l-.462 2.557h.697l.423-2.613c.047-.305.235-.723-.094-.957-.132-.105-.195-.157-.5-.68-.397-.698-.377-1.74-.76-2.638.363-.43.756-.575 1.1-.496.772.19.98 1.52 2.077 2.608-.124-.483-.176-1.013-.436-1.472 0 0 .76.59.957 1.28.125.434.253.75.642.95.257.093.565-.032.874-.402 0 0-.724-1.028-1.252-1.7-.725-.923-1.695-1.848-3.017-1.74-.416.034-.82.223-1.2.45-1.5-.84-2.666.05-3.13.05l-2.812-.168c-.554-.035-.99-.676-.99-.676-.07-2.378-1.98-3.326-2.64-3.326 0 0 .063-.43-.11-.578l-.59.737-1.63-.594 1.28 1.045-1.387 1.61c-.143.16-.12.368-.05.454" fill="#FFF"/><path d="M33.55 54.37c-.392.304-.375.73-.138 1.203l.237.44.612-.47-.138-.3c-.1-.212-.097-.428.077-.564l.88-.665c.247-.18.324-.2.59-.16l1.857.39s-.28-.41-.376-.827l-1.75-.23c-.247-.033-.395.074-.612.237l-1.237.945M45.43 59.885h.7l1.127-2.778c.04-.095.094-.14.137-.218-.507-.2-.802-.343-1.224-.585.282.38.503.542.386.89l-1.126 2.69M43.233 21.022l2.634-1.01s0 .323-.76.838c-.675.468-1.874.967-1.874.967v-.795zm0-1.925l2.992-1.068s-.358.378-1.117.9c-.676.463-1.875.962-1.875.962v-.795zm0-1.81l3.273-1.205s-.64.518-1.398 1.038c-.676.468-1.875.966-1.875.966v-.798zm2.793 5.045l1.3-7.477L42.4 16.53v7.71l3.626-1.908z" fill="#FFF"/><path d="M37.256 28.947l.11.172h1.015l.01.176c.015.17.052.344.108.52.158.485.47.99.973 1.4.583.468 1.426.81 2.547.81 2.427 0 3.525-1.572 3.63-2.73l.006-.177h1.02l.107-.173c.958-1.5 2.127-3.164 3.488-3.4l-3.706-2.15-4.544 2.472-4.546-2.473-3.702 2.15c1.355.236 2.524 1.9 3.486 3.4" fill="#FFF"/><path d="M40.805 19.097v.795s-1.197-.498-1.872-.963c-.765-.523-1.12-.9-1.12-.9l2.992 1.067zm0-1.81v.8s-1.197-.5-1.872-.967c-.765-.52-1.405-1.038-1.405-1.038l3.277 1.206zm0 4.53s-1.197-.5-1.872-.966c-.765-.514-.765-.838-.765-.838l2.637 1.01v.796zm.83 2.424v-7.71l-4.924-1.676 1.296 7.478 3.628 1.91zM42.02 11.556c-2.816 0-4.927.923-5.384 2.004l5.384 2.127 5.38-2.127c-.458-1.08-2.565-2.004-5.38-2.004M42.02 8.47c2.076 0 4.153.628 5.55 1.443.228-.75.473-1.287.803-1.902l-1.276.197-1.03-2.202-1.925 1.024-2.12-2.098-2.125 2.097-1.923-1.025-1.038 2.202-1.273-.196c.332.616.573 1.152.806 1.903 1.4-.815 3.47-1.443 5.55-1.443M77.154 25.417c.696-.09 1.255-.32 1.937-.83-1.47-.39-4.55-1.504-7.182-1.005-.87.114-1.352.467-1.04.668 1.41.937 3.158 3.11 4.426 5.647 1.116-1.384.648-3.204.414-3.725 2.226 1.34 2.806 1.993 3.84 1.738-.55-.844-1.327-1.603-2.394-2.493M8.74 29.897c1.27-2.537 3.018-4.71 4.433-5.647.315-.2-.172-.554-1.037-.668-2.633-.5-5.72.614-7.192 1.005.69.51 1.24.74 1.942.83-1.07.892-1.847 1.65-2.396 2.493 1.038.255 1.617-.397 3.84-1.74-.23.525-.7 2.343.41 3.727" fill="#FFF"/><path d="M20.01 57.36l-.897 1.527c-.322-1.006-.905-2.047-1.277-2.788-.72 1.485-1.86 1.515-2.96 1.522.244-3.558-4.23-7.138-2.26-11.2.39-.81.135-1.807-.71-2.233-3-1.522-1.61 4.795-4.607 4.988.572-.72.786-2.22.872-2.35-.637.167-2.163 1.14-2.85-.105 1.752-.953 2.254-2.388 2.53-3.83.35-1.822.51-2.667.864-3.415.37-.8.96-1.493 2.228-3.136-.3.043-3.674.756-4.433.4 5.836-3.582 4.523-8.134 13.416-12.19-2.333-1.734-4.716-3.117-3.007-6.426 2.437 2.927 7.066 1.916 9.566.555-2.47-.493-5.654-2.672-6.41-5.095.93-.142 2.137.868 2.83 1.34.335-.897.467-1.937 1.55-2.16-1.445 3.093 1.412 4.706 4.136 4.718.424 0 2.187-.178 2.187-.178-.285-.58-1.423-2.162-.595-2.8.668.624 1.46 1.124 2.185 1.68 5.296 4.098-2.52 7.9-5.717 9.623-5.015 2.71-3.674 5.937-1.578 6.76-.007.365-.232.526-.58.643-1.467.487-2.842-.558-4.01-1.23.07 2.026-.07 3.97 2.168 5.084l-1.542.56c1.326 1.01 1.73 1.543 3.324 1.75-.745.362-1.67.355-2.46.43.2.56.364 1.318.78 1.82-3.262.39-4.57-1.475-5.582-1.4-2.154.16-2.02 4.216 3.282 4.222l-.55.908s1.005.586 1.926.698c-.352.285-.69.67-.988.964l.847.73c-2.167.388-2.78-1.916-4.18-.806-2.144 1.7 2.577 5.28 7.103 4.747-.38.487-1.442 1.203-1.9 1.575 3.686 3.484 1.868 6.765 3.384 9.17-3.18-.214-5.534-2.547-6.087-5.07m4.147-3.92c1.025-.813 1.873-1.22 1.83-3.184-1.537.786-5.897.744-7.718-1.763-.516-.714.035-1.072.53-.51 1.247 1.413 3.56.773 4.4.365-.133-.488-.507-1.12-.822-1.39.315-.31 1.207-.773 1.39-1.568-.478-.258-2.327-.444-2.327-.444.298-.287.667-.685.446-1.744-1.89.58-4.223-.208-4.754-.907-.522-.688.01-1.333.45-.877.94.988 5.582 2.122 7.308.402-.64-.177-1.35-.75-1.475-1.106 1.596-.16 2.87-1.103 2.976-2.278-.883 0-2.552-.064-3.12-.492.765-.283 1.25-.56 1.492-1.418-2.922-.177-3.154-2.347-3.17-2.707 1.903 1.1 5.254.61 4.388-2.09-1.584-.086-3.18-2.647 1.175-5 3.958-2.143 8.457-4.453 8.06-8.254-.26-2.434-4.265-4.093-4.773-5.324-1.673.796-2.008 1.72-1.254 3.267 0 0-3.725.37-4.02-1.923-.127-1.028.56-1.99 1.297-2.724-.418 0-3.224-.752-4.07 1.534-1.574-1.073-2.918-1.033-3.98.1 1.692 1.003 2.74 4.447 5.534 5.463-1.99 1.078-5.205.627-7.08-2.685-1.778 2.675-2.8 5.325 1.01 8.153-6.933 3.155-6.883 9.183-12.912 12.056.612 1.64 1.9 1.64 3.544 1.384-2.607 3.387-.385 6.932-4.512 8.38.387 1.382 1.163 2.486 2.684 2.082-.433.674-.718.66-1.392 1.402 2.256 1.42 4.93.392 5.537-4.166.106-.815 1.228-.305.84.494-2.57 5.316 3.932 9.316 1.63 13.217 2.03-.085 3.575-.244 4.42-.927.414.817.662 1.628.573 2.427 1.122-.227 1.53-.89 1.606-1.652.734 2.143 3.36 4.43 7.558 4.43-2.228-3.173-.153-6.396-3.3-10.024" fill="#1A1918"/><path d="M14.194 44.644c.766.8 1.694.882 3.453.772-1.932-.235-3.018-.706-3.696-1.99-.097-.664-.162-1.373-.19-2.13-.06-2.035.61-4.46 2.017-7.115-.01 1.666 1.31 4.285 4.255 4.72-2.646-1.157-4.203-3.764-3.355-6.288.55-.88 1.173-1.79 1.87-2.715.348-.445.688-.875 1.02-1.274-.354 1.285 1.2 2.614 2.24 2.837-.563-.55-1.775-2.34 1.024-5.334-.78.37-1.643.893-2.298 1.402 5.082-5.49 9.262-5.646 11.183-8.41-2.78 1.903-10.142 2.93-13.452 2.03 1.826 1.22 6.225 1.11 7.3.88-3.586 3.49-11.418 7.09-12.775 10.296 1.908-2.093 3.143-2.476 4.794-3.015-1.3 1.94-2.472 3.647-3.28 5.628-2.082 4.526-4.87 4.584-5.053 8.317.95-2.893 2.877-3.627 4.216-5.526-.236 1.21-.346 2.557-.305 4.11.05 1.687.387 3.17.924 4.498-.137 1.845.028 5 2.143 7.078-1.438-1.82-1.745-4.777-1.618-5.93 1.654 3.194 6.378 7.61 8.66 10.575-2.282-3.815-7.878-8.27-9.076-13.416M66.46 29.31c1.644.538 2.883.92 4.79 3.014-1.352-3.205-9.193-6.807-12.78-10.295 1.078.225 5.48.338 7.303-.88-3.304.897-10.667-.13-13.45-2.03 1.923 2.762 6.098 2.917 11.184 8.408-.652-.51-1.517-1.032-2.3-1.402 2.794 2.993 1.587 4.783 1.02 5.335 1.042-.223 2.597-1.552 2.244-2.837.335.4.675.83 1.023 1.274.7.925 1.317 1.835 1.867 2.715.848 2.524-.712 5.13-3.353 6.288 2.946-.434 4.266-3.054 4.25-4.72 1.41 2.657 2.084 5.08 2.02 7.117-.027.756-.092 1.465-.192 2.13-.678 1.283-1.764 1.754-3.694 1.99 1.763.11 2.685.027 3.458-.773-1.2 5.145-6.796 9.6-9.08 13.417 2.284-2.965 7-7.38 8.662-10.575.128 1.154-.182 4.11-1.617 5.93 2.115-2.078 2.278-5.232 2.142-7.078.534-1.327.87-2.81.92-4.498.05-1.553-.068-2.9-.302-4.11 1.338 1.9 3.265 2.632 4.218 5.525-.18-3.733-2.968-3.79-5.057-8.317-.805-1.98-1.972-3.688-3.272-5.63" fill="#1A1918"/><path d="M75.872 46.83c.08.13.295 1.628.87 2.348-3-.193-1.61-6.51-4.61-4.99-.845.427-1.098 1.423-.705 2.235 1.96 4.06-2.51 7.64-2.258 11.2-1.106-.008-2.253-.038-2.967-1.524-.37.74-.957 1.78-1.278 2.785l-.897-1.524c-.557 2.525-2.913 4.86-6.087 5.07 1.51-2.403-.303-5.684 3.39-9.168-.466-.372-1.525-1.09-1.906-1.575 4.528.532 9.25-3.048 7.105-4.747-1.403-1.11-2.02 1.194-4.18.806l.848-.73c-.296-.293-.64-.678-.99-.964.922-.112 1.924-.698 1.924-.698l-.55-.908c5.303-.006 5.43-4.06 3.285-4.223-1.007-.074-2.32 1.79-5.585 1.402.41-.503.582-1.26.784-1.822-.786-.074-1.72-.067-2.46-.43 1.594-.206 1.994-.74 3.32-1.745l-1.536-.564c2.234-1.114 2.095-3.058 2.163-5.083-1.166.674-2.548 1.717-4.006 1.23-.35-.116-.576-.277-.584-.64 2.097-.825 3.433-4.05-1.577-6.762-3.195-1.724-11.017-5.525-5.717-9.623.723-.556 1.51-1.056 2.178-1.68.83.638-.305 2.22-.587 2.8 0 0 1.763.178 2.18.178 2.73-.012 5.592-1.625 4.144-4.722 1.084.227 1.214 1.27 1.545 2.162.694-.47 1.9-1.48 2.836-1.337-.76 2.423-3.94 4.602-6.412 5.096 2.496 1.362 7.13 2.373 9.567-.554 1.71 3.31-.672 4.692-3.01 6.425 8.896 4.056 7.583 8.61 13.417 12.193-.754.355-4.134-.358-4.436-.4 1.274 1.642 1.868 2.335 2.234 3.135.353.748.51 1.592.86 3.416.28 1.44.783 2.876 2.53 3.83-.687 1.244-2.21.27-2.842.105m-.347-9.053c1.64.257 2.932.257 3.545-1.383-6.03-2.873-5.98-8.9-12.91-12.056 3.81-2.828 2.782-5.478 1.013-8.153-1.875 3.312-5.1 3.763-7.08 2.685 2.788-1.016 3.842-4.46 5.532-5.464-1.058-1.134-2.408-1.172-3.982-.1-.85-2.285-3.653-1.533-4.073-1.533.735.734 1.43 1.695 1.298 2.724-.29 2.292-4.016 1.922-4.016 1.922.75-1.55.417-2.472-1.255-3.268-.51 1.23-4.51 2.89-4.77 5.323-.402 3.802 4.1 6.112 8.057 8.255 4.352 2.353 2.755 4.914 1.18 5-.876 2.702 2.475 3.19 4.382 2.09-.01.36-.25 2.53-3.172 2.71.246.856.73 1.133 1.494 1.416-.572.428-2.24.492-3.12.492.103 1.175 1.38 2.118 2.98 2.278-.13.354-.84.93-1.478 1.106 1.726 1.72 6.366.586 7.31-.402.433-.456.96.19.447.875-.535.7-2.865 1.49-4.756.91-.216 1.057.148 1.458.446 1.743 0 0-1.85.184-2.327.444.178.795 1.076 1.257 1.39 1.567-.314.27-.69.902-.824 1.39.848.408 3.158 1.047 4.398-.366.502-.56 1.05-.203.538.51-1.823 2.508-6.184 2.55-7.722 1.764-.043 1.965.806 2.37 1.83 3.183-3.152 3.63-1.07 6.852-3.298 10.026 4.196 0 6.82-2.29 7.558-4.43.083.76.485 1.424 1.604 1.65-.086-.8.163-1.61.57-2.426.85.683 2.4.842 4.423.927-2.296-3.9 4.205-7.9 1.627-13.217-.382-.8.738-1.307.846-.494.604 4.558 3.28 5.587 5.54 4.166-.68-.74-.96-.728-1.394-1.402 1.52.404 2.293-.7 2.684-2.08-4.125-1.45-1.904-4.995-4.515-8.383M33.55 54.37l1.238-.94c.22-.168.365-.275.616-.243l1.747.23c.096.418.377.828.377.828l-1.858-.39c-.266-.032-.343-.02-.59.158l-.88.666c-.174.135-.18.35-.08.563l.142.306-.613.464-.238-.44c-.237-.475-.254-.903.14-1.204m2.835-3.283l-.322.17c-.223.13-.336.187-.53-.054l-.14-.177c-.07-.083-.092-.29.05-.45l1.384-1.61-1.276-1.047 1.624.597.594-.74c.174.148.113.576.113.576.658 0 2.568.95 2.64 3.328 0 0 .434.64.984.673l2.812.17c.467 0 1.633-.89 3.133-.05.377-.226.784-.41 1.2-.456 1.322-.098 2.292.824 3.017 1.75.528.67 1.253 1.697 1.253 1.697-.312.37-.618.495-.876.4-.39-.2-.518-.514-.643-.948-.197-.69-.956-1.28-.956-1.28.26.463.313.99.437 1.472-1.1-1.087-1.307-2.418-2.076-2.6-.34-.086-.737.06-1.104.486.387.9.367 1.943.765 2.64.304.52.366.57.5.68.327.235.142.653.093.958l-.417 2.614h-.7l.46-2.558c.142-.78-2.044-.78-3.164-2.265-.955 1.116-3.63.837-4.79.663-.465-.07-.922-.04-1.178.42-.15.257-.403.18-.556.144l-2.11-.456c-.372-.086-.532-.013-.697.328l-.42.874c-.095.205-.09.355.08.52l.198.214c-.12.42-.5.738-.5.738l-.46-.52c-.225-.26-.237-.64-.06-1.01l.683-1.428c.083-.157.228-.33.515-.33l2.61-.04-.798-1.302c-.596-.977.392-2.718.245-3.54-.074 1.103-1.408.6-1.615.75m10.87 6.02l-1.127 2.778h-.7l1.126-2.69c.117-.35-.104-.51-.386-.89.42.235.717.39 1.224.583-.043.077-.097.122-.137.217m-13.744-.315l1.27-1.075-.194-.385c-.14-.276-.065-.292.08-.402l.67-.5c.155-.126.318-.11.507-.066l2.01.472h-2.12c-.49.033-.633.22-.81.584l-.145.297-.545 1.12c-.186.386-.282.9.205 1.48l.384.46-.78 1.58h.657l.54-1.096c.044-.04.84-.767 1.01-1.522-.23-.188-.394-.32-.267-.582l.246-.524c.08-.174.108-.245.34-.2l2.11.457c.263.072.65.187.932-.237.288-.442.328-.394.998-.327l1.077.114c1.47.14 2.94-.23 3.513-.682.2.458.597.806.784 1.162.07.132-.046.318-.136.55l-1.208 2.887h1.864l1.054-2.635c.098-.252.24-.453.35-.554l-.605 3.19h1.81l.48-3.156c.104-.7.042-.928-.295-1.216-.755-.636-.737-1.973-.98-2.784.127-.074.276-.11.454-.09.395.035.69 1.042 1.155 1.69.925 1.3 2.19 2.737 3.635.714-.14-.23-.29-.44-.466-.64l-.405-.475c-.235-.26-1.355-1.542-1.822-2.004-1.06-1.07-2.692-.906-3.34-.388-1.472-.77-3.024.04-3.39.01l-2.533-.154c-.116-.008-.29-.046-.414-.244l.47-.154c-.44-1.833-1.547-3.37-3.483-3.632 0 0-.113-.58-.408-.69l-.578.68c-.163.022-.34.073-.486.136l-2.47-.92 1.856 1.874s-.962 1.362-1.235 1.64c-.182.255-.164.454.04.698l.36.472c.186.245.388.235.685.083l.407-.21c.177-.15.77.144 1.026-.09-.163.534-.245 1.046-.282 1.453l-1.665-.2c-.363-.048-.528 0-.75.173l-1.42 1.094c-.463.356-.607.97-.32 1.567l.573 1.198M38.933 20.85c.675.468 1.872.968 1.872.968v-.796l-2.637-1.01s0 .324.765.84M40.805 19.892v-.795l-2.992-1.068s.355.378 1.12.9c.675.463 1.872.962 1.872.962M40.805 18.086v-.798l-3.277-1.206s.64.518 1.405 1.038c.675.468 1.872.966 1.872.966" fill="#1A1918"/><path d="M50.01 28.947h3.352c-.138-.488-.66-.978-1.638-.978-.924 0-1.48.535-1.713.977M46.506 16.082l-3.273 1.206v.798s1.2-.498 1.875-.966c.762-.52 1.398-1.038 1.398-1.038M45.868 20.012l-2.635 1.01v.796s1.2-.5 1.875-.967c.76-.514.76-.838.76-.838M46.225 18.03l-2.992 1.067v.795s1.2-.498 1.875-.963c.76-.522 1.117-.9 1.117-.9M32.306 27.97c-.978 0-1.497.49-1.637.977h3.353c-.24-.443-.787-.978-1.717-.978" fill="#1A1918"/><path d="M42.02 15.687l-5.384-2.127c.457-1.08 2.568-2.004 5.384-2.004 2.815 0 4.922.923 5.38 2.004l-5.38 2.127zm4.006 6.645l-3.627 1.91v-7.713l4.927-1.675-1.3 7.477zm4.242 3.215c-1.36.236-2.53 1.9-3.488 3.4l-.107.172h-1.02l-.006.176c-.105 1.158-1.203 2.73-3.63 2.73-1.12 0-1.964-.343-2.546-.81-.502-.41-.816-.915-.972-1.4-.056-.174-.093-.35-.108-.52l-.01-.177h-1.014l-.11-.173c-.962-1.5-2.13-3.164-3.486-3.4l3.702-2.15 4.548 2.472 4.542-2.473 3.706 2.15zm4.994 5.668c-.39 1.01-.7 2.106-.7 3.204v11.774h-1.37c-.623-.603-1.15-2.61-1.15-2.61-.34.724.05 2.186.415 2.61h-1.763c-.438-.59-.815-2.682-.815-2.682-.528.6-.194 2.23.133 2.682H48.84c-.072-.836.167-1.748.167-1.748-.614-.113-1.266-.435-1.264-1.117.31.29.437.284.866.275l.496-.392c-1.65.054-1.728-1.76-.418-2.608-1.31.042-2.288-.737-1.81-2.127-.932-.48-1.26-2.057-.573-2.75-.497-.54-.58-1.602-.26-2.327-.66 0-1.403-.262-1.818-.712-.03.015-.07.025-.104.037.826-.337 1.524-.86 1.996-1.51h9.142zm-.698 23.392c0 2.456-1.135 4.323-3.023 5.356l.678-1.375h-.655l-.867 1.762c-.9.34-1.92.527-3.047.527-3.447 0-4.357.14-5.63 1.41-1.277-1.27-2.187-1.41-5.627-1.41-1.12 0-2.138-.183-3.033-.52h.023l.87-1.77h-.655l-.762 1.55c-.183-.087-.358-.18-.527-.28l.624-1.27h-.65l-.465.946c-1.478-1.086-2.344-2.782-2.344-4.926v-7.722h25.088v7.722zM37.487 40.504l1.056.132c.08.578-.072 1.56-.45 2.11l-1.024-.296c.273-.65.34-1.255.417-1.946zm-1.524-.774s.97-.046 1.246.056c.2.085.063.425-.2.387-.272-.033-1.047-.443-1.047-.443zm-.064-3.853l-.873 3.18.297-5.13 1.352-1.156.687 1.51-1.737 4.98.458-3.352c.044-.233-.147-.26-.185-.03zm-.67 5.3c-.457.182-.925-.065-.78-.36.21.192.8.098.8.098l-.02.263zm-.86.425c.213.203.85.126.85.126l.024.128c-.28.37-1.05.203-.874-.254zm-1-2.05c-.244-.162-.134-.516.136-.516.295.008.692.344 1.083.51 0 0-1.025.14-1.22.007zm.97 2.822s.292.122.663.15c-.043.205-.2.4-.45.345-.208-.047-.3-.306-.214-.496zm.687-1.922c-.492.16-.707-.196-.686-.498.963-.35 1.392-.124 1.673.055.26.163.474.626.822.916-.057.395-.18.965-.32 1.347-.983-.253-1.035-1.12-.668-1.647-.205-.24-.423-.302-.82-.174zm4.266.282l1.053.125c.104.578-.094 1.808-.49 2.395l-1.074-.31c.43-.564.587-1.565.51-2.21zm1.812.22l.87.11c.137.722.046 1.97-.414 2.68l-1.01-.292c.442-.603.65-1.843.555-2.497zm1.557.195h.02c.225.033.462-.006.68-.095.468.673.837 2.2.272 3.153-.32.006-.632-.05-.925-.133l-.234-.07c.475-.738.407-2.04.186-2.856zm1.327-.514l.617-.604c.627.548 1.452 1.773 1.195 2.936l-.673.617c-.14.133-.283.233-.43.322.42-1.038-.115-2.638-.71-3.27zm3.615.345c-.134.18-.244.39-.314.62l-.747.686c.15-1.094-.587-2.39-1.258-2.918l.796-.78.16.16c-.266.697.254 2.07 1.365 2.233zm-1.988-5.298c-.393.752-.353 1.618.11 2.404l-.31.303c-1.34-.17-1.872-2.17-1.872-2.17-.026.178-.043.355-.04.533-.783-.29-1.28-.986-1.24-1.94.297.166.63.283.985.344l.092-.585c-.94-.164-1.487-.75-1.695-1.443-.044-.005-.085-.016-.128-.02.167.015.33.028.5.028.558 0 1.086-.086 1.582-.232.39.555 1.08.953 1.775 1.03-.11.454-.055 1.032.24 1.746zm-7.7-4.467c.648.886 1.7 1.543 2.944 1.8.107.468.36.98.854 1.393-.205 1.377.386 2.663 1.87 3.005.153.7.59 1.233 1.317 1.484l-1.028 1.19c-.392.456-.906.6-1.332.55l-4.602-.525c.2-.51-.33-1.102-1.787-.848l1.81-5.06-1.103-2.346-2.093 1.785-.153 5.306-.887-.44c-1.17-.503-1.51 1.61-.4 1.618l.44.005c-.027.216.038.457.21.53-.21.087-.272.48-.008.62-.266.126-.302.527-.088.7-.233.39-.267 1.235.54 1.45.66.172 1.072-.54 1.21-.952l7.158 2.22c1.014.29 1.735.126 2.575-.612l1.87-1.634c-.236 1.068.15 2.032.963 2.35 0 0-.117.96-.08 1.39H29.476V34.42c0-1.1-.316-2.195-.693-3.205h9.134zm-1.21-16.36l4.927 1.674v7.71l-3.63-1.908-1.296-7.477zm11.97-.918c0-1.885-3.168-3.572-6.66-3.572-3.495 0-6.662 1.687-6.662 3.572l.073.462 1.39 8.005-6.602 3.85c-.703.41-1.582 1.548-1.693 2.692h1.204c.2-1.143 1.102-2.41 2.787-2.332 1.524.08 2.427 1.007 3.324 2.332l.23.35.333.52h-9.71c.714 1.433 1.393 2.953 1.393 4.602v20.187c0 5.195 3.99 7.668 8.31 7.668 3.337 0 3.787-.152 5.628 1.69 1.837-1.842 2.286-1.69 5.63-1.69 4.316 0 8.308-2.473 8.308-7.668V34.42c0-1.65.676-3.17 1.39-4.603H47.63l.334-.52.23-.35c.894-1.325 1.8-2.252 3.326-2.332 1.678-.08 2.586 1.19 2.785 2.332h1.2c-.106-1.144-.99-2.282-1.69-2.693l-6.603-3.85 1.393-8.005.07-.463z" fill="#1A1918"/><path d="M53.99 38.824l.01-.59c-1.81-.043-2.226-2.18-2.226-2.18-.53 1.574.853 2.746 2.216 2.77M51.703 42.442l-.18-.558c-1.546.395-2.345-2.053-2.345-2.053-.495 1.78 1.23 3.04 2.525 2.612M52.777 40.173c-1.847.292-2.604-1.855-2.604-1.855-.205 1.17.553 2.355 1.775 2.48-.276 1.527 1.14 2.308 2.368 1.765l-.177-.532c-1.068.36-2.067-.696-1.363-1.857M51.672 34.046l.016-.59c-2.436-.503-2.233-2.18-2.233-2.18-.525 1.578.858 2.744 2.217 2.77M36.236 58.588l-.872 1.77h.655l.87-1.77h-.654M37.55 58.588l-.868 1.77h.66l.864-1.77h-.656M42.825 58.588l-.867 1.77h.653l.872-1.77h-.657M44.147 58.588l-.875 1.77h.66l.865-1.77h-.65M41.51 58.588l-.873 1.77h.655l.872-1.77h-.655M49.212 60.357h.656l.87-1.77h-.656l-.87 1.77M38.87 58.588l-.868 1.77h.657l.87-1.77h-.66M40.186 58.588l-.87 1.77h.66l.87-1.77h-.66M37.203 49.082c-.12 0-.224.117-.224.267 0 .145.104.265.223.265.125 0 .23-.12.23-.266 0-.15-.105-.268-.23-.268M36.936 8.207l1.038-2.2 1.923 1.022L42.02 4.93l2.125 2.097 1.922-1.023 1.027 2.2 1.28-.196c-.33.616-.576 1.15-.803 1.903-1.397-.815-3.474-1.443-5.55-1.443-2.08 0-4.152.628-5.55 1.443-.234-.753-.476-1.287-.807-1.902l1.273.197zm5.085.964c2.705 0 4.87.896 6.065 1.86 0 0 .358-2.147 1.568-4.03l-2.18.243-1.137-2.424-2.19 1.138L42.02 3.85l-2.123 2.108-2.195-1.14-1.14 2.425L34.386 7c1.214 1.883 1.567 4.03 1.567 4.03 1.193-.964 3.363-1.86 6.07-1.86z" fill="#1A1918"/><path d="M44.243 4.834c.317.026.598-.213.624-.525.03-.316-.43-1.16-.43-1.16s-.693.743-.715 1.06c-.03.313.208.592.52.624M47.813 6.127c.28.152.624.04.775-.242.153-.277.054-1.233.054-1.233s-.92.415-1.07.697c-.145.277-.04.624.24.777M39.79 4.834c.323-.032.556-.31.528-.623-.03-.317-.715-1.06-.715-1.06s-.46.844-.43 1.16c.025.31.307.55.617.524M36.227 6.127c.28-.153.388-.5.238-.778-.15-.283-1.07-.698-1.07-.698s-.098.956.057 1.233c.147.282.494.394.775.242M75.707 26.172c.235.523.7 2.34-.413 3.725-1.268-2.537-3.015-4.71-4.427-5.647-.31-.2.17-.554 1.04-.668 2.632-.5 5.714.614 7.184 1.005-.683.51-1.24.74-1.936.827 1.067.895 1.844 1.652 2.394 2.496-1.034.255-1.614-.398-3.84-1.738m3.32-.43c.758-.27 1.347-.996 1.64-1.667-1.935-.278-7.074-2.436-11.3-.68 1.583-1.5 3.005-1.695 3.14-3.855.655.472 1.764.738 2.39-.388-.437-1.286-1.536-.245-1.692-.598-.214-.493 1.388.15 1.73-1.52-1.245-.428-1.618.59-1.84.354-.207-.225.79-.654.057-2-1.297.758-.623 1.613-.896 1.71-.333.13-.07-.913-1.505-.866-.14 1.542 1.347 1.59 1.104 1.835-.296.298-.685-.886-1.768-.286.02 1.246 1.027 1.93 2.068 1.635-.17 2.365-2.338 1.924-3.954 4.587 3.42 1.754 4.968 4.812 7.073 6.927.696-.494 1.884-2.687 1.884-2.687 2.277 1.764 3.88.007 3.88.007-.786-.804-.813-1.414-2.013-2.51M41.384 67.693l-1.482-.055-.17.593.186.01c.062 0 .062-.115.116-.18.03-.02.3-.065.51-.043l.622.047c-.366.76-1.322 1.477-1.31 1.982.013.27.286.322.45.315.298-.01.392-.22.47-.544.18-.75.543-1.32.804-2.178l-.184.006-.012.05M42.4 68.578l.02-.457h1.29l-.07-.51c-.352.013-.868.128-1.342.13l-.09.997c.596-.026.985.233.985.86 0 .232-.153.667-.42.7-.064.01-.146-.012-.184-.043-.13-.097.04-.204.04-.364 0-.208-.213-.28-.355-.256-.22.015-.3.16-.3.335 0 .365.545.468.78.468.527 0 1.138-.294 1.138-.893 0-.788-.882-.95-1.494-.967M45.485 68.984c-.46 0-.524-.715-.524-1.062 0-.098.09-.236.19-.236.42 0 .534.973.568 1.247-.068.026-.148.05-.233.05m-.292-1.433c-.462 0-.84.345-.84.814 0 .743.795.987 1.386.706.072.576-.045.99-.264 1.003-.185 0-.16-.14-.185-.26-.048-.223-.225-.283-.408-.223-.193.056-.22.226-.19.355.088.29.447.297.62.276.758-.085 1.076-.648 1.076-1.273 0-.724-.414-1.397-1.195-1.397M38.862 67.4c-.068.084-.386.48-1.07.99l.057.1c.075-.04.195-.097.402-.22l-.403 1.406c-.023.076-.117.083-.16.076l-.24-.034-.045.164 1.307.235.04-.166-.226-.048c-.066-.02-.108-.067-.096-.143l.595-2.336-.163-.025" fill="#1A1918"/><path d="M48.765 69.06l-1.16-3.772c2.47-.51 4.19-1.036 5.504-1.543v2.353l2.037.82c-1.72.786-3.857 1.565-6.382 2.142m-6.744 2.207c-2.304 0-4.554-.345-6.478-.817l1.224-3.957c.81.19 2.842.438 5.255.438 2.417 0 4.438-.248 5.254-.437l1.228 3.957c-1.933.472-4.183.817-6.48.817M28.887 66.92l2.04-.822v-2.353c1.314.507 3.034 1.032 5.506 1.543l-1.16 3.772c-2.518-.577-4.66-1.356-6.386-2.14m24.853-1.31V62.72c-2.23 1.023-5.07 1.852-8.72 2.18l-.168 1.032c.31.044.705.082 1.23.116-1.354.185-3.103.275-4.06.275-.96 0-2.707-.09-4.062-.275.523-.034.914-.072 1.224-.116l-.164-1.032c-3.653-.328-6.496-1.157-8.72-2.18v2.887l-3.028 1.24c2.24 1.167 4.82 2.118 7.804 2.886l-.354 1.208c1.71.5 4.437 1.014 7.3 1.014 2.86 0 5.587-.513 7.295-1.014l-.352-1.208c2.978-.768 5.564-1.72 7.806-2.885l-3.03-1.24M4.487 27.91c.552-.844 1.326-1.6 2.4-2.493-.702-.09-1.253-.32-1.943-.83 1.47-.39 4.562-1.504 7.192-1.005.865.114 1.352.467 1.036.666-1.414.94-3.16 3.112-4.43 5.648-1.112-1.385-.643-3.2-.413-3.724-2.223 1.34-2.802 1.993-3.843 1.738m2.393.333s1.19 2.193 1.88 2.685c2.11-2.114 3.66-5.172 7.076-6.926-1.617-2.663-3.79-2.216-3.95-4.587 1.04.294 2.045-.392 2.065-1.634-1.086-.596-1.473.59-1.766.287-.244-.25 1.245-.293 1.104-1.833-1.435-.045-1.172.995-1.51.864-.268-.098.406-.954-.897-1.71-.73 1.352.27 1.774.064 2-.222.236-.597-.782-1.842-.354.337 1.67 1.947 1.027 1.73 1.52-.154.353-1.253-.688-1.686.598.62 1.126 1.73.86 2.38.39.14 2.166 1.558 2.348 3.144 3.854-4.224-1.757-9.363.4-11.304.682.298.668.885 1.393 1.645 1.657C3.814 26.84 3.785 27.448 3 28.25c0 0 1.598 1.757 3.88-.007M40.17 26.632v1.272c.437-.527 1.284-.423 1.284-.423v1.83s-.03.903-.35 1.29h1.834c-.32-.387-.35-1.29-.35-1.29v-1.83s.846-.103 1.284.424v-1.272H40.17" fill="#1A1918"/></g>
</svg>
