<?xml version="1.0" encoding="UTF-8" standalone="no"?>
<svg width="286" height="83" viewBox="0 0 286 83" xmlns="http://www.w3.org/2000/svg">
  <g fill="#7038FF" fill-rule="evenodd">
    <path d="M240 55h-18v-6.9L239.8 23h9.2v24.6L265 0h-38.1l-18.2 22.6c2.6.4 4.9 1.4 6.8 3.1 2.5 2.2 3.8 4.9 3.8 8.3 0 3.2-1 6.3-2.9 9.2-1.9 2.9-5.3 6.9-10.2 10.9H219v8h-27v-7.5l1.4-1c4.9-3.2 8.7-6.4 11.6-9.8 2.9-3.3 4.3-6.3 4.3-8.8 0-1.6-1.2-3.3-2.8-3.8-1.7-.6-3.7-.1-5.1.9-.9.7-1.6 1.5-2.4 2.3v-.2L182.9 54H175V24h-10v40h10.5l-15.6 19h77.5l6.9-21H240v-7z" class="svg__logo-3-mono"/>
    <path d="M240 48V35.3L232.4 48h7.6zM0 33h10v31h10V33h9v-9H0v9zM80.2 24L64 58.4l-5.4-8.7c3.9-2.6 5.8-6.9 5.8-11.4 0-6.9-4.7-13.9-14.1-13.9-5.8-.1-11.3 0-17.3 0V64h10V51h5.7l6.7 13h17.5l2.2-5h14.7l2.3 5H103v-1.7L84.9 24h-4.7zM50.3 43H43V33h7.3c2.9 0 4.3 2.5 4.3 4.9-.1 2.5-1.5 5.1-4.3 5.1zm28.2 7l4-9.5 4.1 9.5h-8.1zM116.1 35.7L112.9 46h-.2l-3.3-10.3-4.9-11.7H94v2l16.6 38h4.3L132 26v-2h-11.1l-4.8 11.7zM160 54h-15v-6h14v-9h-14v-6h15v-9h-25v40h25V54zM282.3 38.7c-2.3-2.5-5.1-3.8-8.6-3.8-.6 0-1.4 0-2.4.2l8.6-12h-11.6l-9.7 14.4c-2.5 3.6-3.7 7.3-3.7 11 0 3.1 1.1 6 3.2 8.9 3 3.9 7.1 5.9 12.3 5.9 4.4 0 8-1.4 10.9-4.3 2.9-2.8 4.4-6.4 4.4-10.7 0-3.9-1.1-7.1-3.4-9.6zm-8.1 14.1c-1.1 1-2.3 1.5-3.9 1.5-1.5 0-2.8-.5-3.8-1.6s-1.6-2.3-1.6-3.9c0-1.5.5-2.7 1.5-3.7s2.3-1.5 3.8-1.5 2.8.5 3.9 1.5 1.6 2.3 1.6 3.8c0 1.6-.5 2.9-1.5 3.9z" class="svg__logo-3-mono"/>
  </g>
</svg>
