<?xml version="1.0" encoding="utf-8"?>
<svg width="24" height="24" viewBox="0 0 24 24" xmlns="http://www.w3.org/2000/svg">
    <path d="M12 0C5.372 0 0 5.373 0 12c0 5.302 3.438 9.8 8.207 11.386.6.11.82-.26.82-.578 0-.284-.012-1.04-.018-2.04-3.338.724-4.043-1.61-4.043-1.61-.546-1.386-1.332-1.755-1.332-1.755-1.09-.744.082-.73.082-.73 1.205.086 1.838 1.238 1.838 1.238 1.07 1.834 2.81 1.305 3.493.997.11-.775.42-1.304.762-1.603-2.665-.303-5.467-1.333-5.467-5.93 0-1.31.468-2.383 1.236-3.22-.125-.305-.537-1.525.117-3.177 0 0 1.007-.323 3.3 1.23.956-.266 1.983-.4 3.003-.404 1.02.005 2.046.138 3.005.404 2.29-1.553 3.296-1.23 3.296-1.23.656 1.652.244 2.872.12 3.176.77.838 1.234 1.91 1.234 3.22 0 4.61-2.806 5.624-5.478 5.92.43.372.814 1.104.814 2.224 0 1.603-.015 2.898-.015 3.29 0 .322.217.696.825.58C20.565 21.794 24 17.3 24 12c0-6.627-5.373-12-12-12" fill="#161614" fill-rule="evenodd"/>
</svg>
