<?xml version="1.0" encoding="utf-8"?>
<svg width="24" height="24" viewBox="0 0 24 24" xmlns="http://www.w3.org/2000/svg">
    <g fill="none" fill-rule="evenodd"><circle fill="#55ACEE" cx="12" cy="12" r="12"/><path d="M19.688 7.535c-.552.245-1.145.41-1.768.485.635-.38 1.123-.984 1.353-1.703-.595.353-1.253.61-1.954.747-.563-.598-1.362-.972-2.247-.972-1.7 0-3.078 1.378-3.078 3.077 0 .24.028.476.08.7-2.558-.127-4.825-1.353-6.343-3.214-.265.454-.417.983-.417 1.547 0 1.067.543 2.01 1.37 2.56-.505-.015-.98-.153-1.395-.384v.038c0 1.49 1.06 2.734 2.47 3.017-.26.07-.53.108-.812.108-.2 0-.39-.02-.58-.055.393 1.223 1.53 2.113 2.876 2.137-1.054.825-2.38 1.317-3.822 1.317-.25 0-.494-.014-.734-.043 1.36.872 2.98 1.382 4.717 1.382 5.66 0 8.756-4.69 8.756-8.756 0-.133-.003-.266-.01-.398.603-.433 1.125-.976 1.538-1.593" fill="#FFF"/></g>
</svg>
